<?xml version="1.0" encoding="UTF-8"?>
<svg id="Layer_1" data-name="Layer 1" xmlns="http://www.w3.org/2000/svg" xmlns:xlink="http://www.w3.org/1999/xlink" viewBox="0 0 268.84 268.84">
  <defs>
    <style>
      .cls-1 {
        fill: url(#linear-gradient);
      }
    </style>
    <linearGradient id="linear-gradient" x1="0" y1="-8427.57" x2="268.84" y2="-8427.57" gradientTransform="translate(0 -8293.15) scale(1 -1)" gradientUnits="userSpaceOnUse">
      <stop offset="0" stop-color="#c2a9f2"/>
      <stop offset=".14" stop-color="#cda9ed"/>
      <stop offset=".28" stop-color="#d1a9eb"/>
      <stop offset=".67" stop-color="#dfade2"/>
      <stop offset=".89" stop-color="#dda6d7"/>
      <stop offset="1" stop-color="#dba1cd"/>
    </linearGradient>
  </defs>
  <path class="cls-1" d="M196.32,268.84c-6.85-1.04-13.59-2.49-19.92-5.29-13.18-5.81-23.03-15.36-30.5-27.39-.73-1.14-.73-2.28-.31-3.53,3.53-10.48,4.98-21.27,4.88-32.16,0-9.03-1.25-17.95-4.25-26.46-.62-1.87-.31-2.8,1.45-3.74,3.53-1.87,6.43-4.46,8.61-7.89,.83-1.14,1.76-1.76,3.22-1.87,18.16-.83,34.24,4.25,47.41,17.02,10.79,10.48,17.22,23.34,20.54,37.97,3.32,15.04,3.53,30.09,1.04,45.24-.62,3.94-2.49,5.81-6.43,6.54-3.01,.52-6.02,.93-9.03,1.45-5.5,.1-11.1,.1-16.7,.1Zm-131.66,0c-4.67-.73-9.34-1.35-13.9-2.49-2.59-.73-4.77-1.97-5.6-4.67-5.29-15.67-6.85-31.54-.83-47.41,5.29-14.11,15.46-23.86,28.12-31.33,1.76-1.04,3.94-.83,5.81-1.25,13.18-2.49,25.73-6.64,37.25-13.49,1.45-.83,2.49-.83,3.74,.21,2.49,1.97,5.29,3.42,8.4,4.25,1.76,.42,2.59,1.45,3.22,3.01,3.84,10.17,4.98,20.54,4.36,31.33-.62,9.75-2.39,19.3-6.95,28.01-9.65,18.47-25.21,28.84-45.44,32.89-1.87,.42-3.74,.62-5.71,.93h-12.45ZM268.74,107.29c-2.59,8.2-5.4,16.19-9.65,23.76-7.26,12.87-16.81,23.14-31.13,28.22-4.25,1.45-8.61,2.18-13.07,2.8-1.87,.21-3.32-.21-4.88-1.35-13.49-9.96-28.64-14.94-45.44-14.84-2.28,0-3.32-.42-3.63-3.01-.73-5.81-3.22-10.89-7.47-14.94-1.66-1.56-1.87-3.01-1.04-5.08,9.65-23.66,25.94-39.63,51.67-44.09,16.91-3.01,32.58,1.04,47.31,9.55,5.4,3.11,10.38,6.85,15.04,10.89,1.04,.83,1.66,1.97,2.39,3.11-.1,1.45-.1,3.22-.1,4.98ZM44.63,76.27c13.9-.21,25.63,4.98,35.69,14.42,.93,.93,1.35,1.97,1.76,3.11,4.88,16.39,13.38,30.5,26.25,41.81,1.25,1.14,1.76,2.18,1.25,3.84-1.25,4.05-1.45,8.3-.52,12.45,.52,1.97-.31,2.91-1.76,3.74-8.3,4.88-17.33,7.89-26.56,10.17-18.99,4.57-36.52,2.08-52.08-10.48-8.09-6.54-14.42-14.42-19.09-23.66C3.96,120.37,.75,108.33,.02,95.78c-.21-3.32,1.25-5.6,4.05-7.26,10.89-6.33,22.51-10.69,35.17-12.14,1.66-.31,3.53-.1,5.4-.1Zm131.35-20.44c-.1,5.29-.83,10.48-1.76,15.56-.31,1.56-1.04,2.59-2.39,3.53-15.87,10.38-26.66,24.69-33.41,42.23-.83,2.08-1.76,2.91-3.94,2.8-4.88-.21-9.34,1.14-13.38,3.94-1.66,1.14-2.7,.93-4.05-.42-12.14-11.41-19.4-25.52-22.51-41.71-3.01-16.08-1.97-31.85,5.4-46.79,7.26-14.63,18.47-25.42,32.37-33.82,2.18-1.35,4.57-1.56,6.74-.42,16.91,8.61,29.67,20.75,34.96,39.63,1.35,4.98,1.97,10.17,1.97,15.46Z"/>
</svg>