<?xml version="1.0" encoding="UTF-8"?>
<svg id="Layer_1" data-name="Layer 1" xmlns="http://www.w3.org/2000/svg" xmlns:xlink="http://www.w3.org/1999/xlink" viewBox="0 0 1657.47 329.28">
  <defs>
    <style>
      .cls-1 {
        fill: url(#linear-gradient);
      }

      .cls-2 {
        fill: url(#linear-gradient-2);
      }
    </style>
    <linearGradient id="logo-gradient-id" x1="117.08" y1="198.1" x2="260.38" y2="198.1" gradientUnits="userSpaceOnUse">
      <stop offset="0" stop-color="#8b8dd1"/>
      <stop offset=".48" stop-color="#ad9ce1"/>
      <stop offset="1" stop-color="#ede8f0"/>
    </linearGradient>
    <linearGradient id="logo-gradient-id-2" x1="0" x2="143.3" xlink:href="#logo-gradient-id"/>
  </defs>
  <g>
    <path d="M466,289.41c-18.29,16.42-27.21,22.52-43.15,28.61-15.95,6.1-32.84,9.38-48.78,9.38-51.6,0-83.02-26.74-83.02-71.3,0-37.53,23.45-64.73,67.07-76.93,27.68-7.97,50.19-10.79,107.89-12.19v-27.21c0-31.9-20.17-48.31-59.1-48.31-25.8,0-45.03,6.57-58.16,20.17-6.1,6.57-9.85,13.13-14.54,27.2l-36.59-7.97c8.44-21.58,14.54-31.43,26.27-41.75,19.23-17.83,47.38-26.74,82.56-26.74,61.92,0,93.81,26.27,93.81,76.93v131.81c0,21.11,.94,32.83,3.75,51.6h-37.99v-33.3Zm0-94.75c-55.82,1.41-82.56,4.69-103.66,13.6-23.92,9.85-35.65,25.8-35.65,48.31,0,25.8,19.23,42.22,49.72,42.22,27.21,0,56.76-13.13,75.05-33.3,10.79-11.73,14.54-21.58,14.54-40.34v-30.49Z"/>
    <path d="M715.55,147.29c-13.6-36.59-36.12-53.94-70.83-53.94-51.6,0-84.43,40.34-84.43,103.19s33.77,101.32,86.31,101.32c26.74,0,48.78-10.79,60.98-30.02,4.69-7.03,7.04-12.67,10.32-23.92l35.18,9.38c-6.57,16.88-11.26,25.8-19.23,36.12-20.64,25.8-50.66,39.4-88.65,39.4-73.64,0-121.02-51.13-121.02-131.34s46.91-134.15,118.67-134.15c38.93,0,70.36,15.01,90.53,43.15,6.57,8.91,10.79,16.42,16.42,30.02l-34.24,10.79Z"/>
    <path d="M953.84,147.29c-13.6-36.59-36.12-53.94-70.83-53.94-51.6,0-84.43,40.34-84.43,103.19s33.77,101.32,86.31,101.32c26.74,0,48.78-10.79,60.98-30.02,4.69-7.03,7.04-12.67,10.32-23.92l35.18,9.38c-6.57,16.88-11.26,25.8-19.23,36.12-20.64,25.8-50.66,39.4-88.65,39.4-73.64,0-121.02-51.13-121.02-131.34s46.91-134.15,118.68-134.15c38.93,0,70.36,15.01,90.53,43.15,6.57,8.91,10.79,16.42,16.42,30.02l-34.24,10.79Z"/>
    <path d="M1036.4,201.7c1.41,31.43,6.1,48.78,18.76,65.67,15.01,20.64,38,31.9,66.14,31.9,37.99,0,64.26-18.76,77.4-54.88l32.83,13.13c-8.91,19.7-15.01,28.14-25.8,38.93-22.05,21.58-50.66,32.84-84.9,32.84-73.64,0-120.08-51.6-120.08-132.75s45.97-132.75,116.33-132.75c60.51,0,104.13,38.93,113.51,101.79,.47,5.16,2.34,23.45,3.28,36.12h-197.48Zm159.95-29.55c-2.82-26.27-9.85-43.15-24.86-57.69-14.54-14.07-32.83-21.11-55.35-21.11-28.61,0-52.54,14.54-66.61,40.81-6.57,11.73-8.91,20.17-11.73,37.99h158.55Z"/>
    <path d="M1255.47,322.72c2.81-17.82,3.75-30.49,3.75-53V122.9c0-21.11-.94-34.24-3.75-53h38.93v31.9c0,5.63,0,9.38-1.41,20.17,22.05-38.46,52.54-56.76,94.75-56.76,33.77,0,60.04,12.2,75.05,35.18,8.91,13.6,13.13,30.96,13.13,53.94v115.86c0,23.92,.94,37.06,3.28,52.54h-42.22c2.35-18.29,3.28-32.36,3.28-53v-109.29c0-42.21-20.17-64.73-57.22-64.73-26.27,0-47.38,11.73-67.08,37.06-12.19,15.95-17.83,27.68-21.58,46.44v90.53c0,20.64,.94,34.71,3.28,53h-42.21Z"/>
    <path d="M1584.29,0c-2.34,15.01-3.28,31.9-3.28,52.07v17.83h22.52c21.58,0,31.43-.47,47.85-2.82v35.65c-15.01-2.34-26.74-2.81-47.85-2.81h-22.52v163.23c0,13.6,1.88,20.64,6.1,24.86,5.16,5.16,13.14,7.97,22.99,7.97,12.19,0,21.58-2.81,37.05-12.19l10.32,32.83c-19.23,7.98-33.77,10.79-53,10.79-20.64,0-36.59-5.16-45.97-14.54-9.38-9.38-13.13-22.98-13.13-45.03V99.91h-18.76c-15.95,0-26.74,.94-42.21,2.81v-35.65c13.13,2.34,22.52,2.82,42.21,2.82h18.76v-17.83c0-18.76-.94-36.59-3.28-52.07h42.22Z"/>
  </g>
  <g>
    <path style="fill:url(#logo-gradient-id)" d="M117.08,217.85c0-75.42,34.25-149.95,143.3-149.95v47.59c-29.74,7.18-48.67,27.83-48.67,77.22h48.67v135.58H117.08v-110.44Z"/>
    <path style="fill:url(#logo-gradient-id-2)" d="M143.3,178.34c0,75.42-34.25,149.95-143.3,149.95v-47.59c29.74-7.18,48.67-27.83,48.67-77.22H0V67.9H143.3v110.44Z"/>
  </g>
</svg>