<?xml version="1.0" encoding="UTF-8"?>
<svg id="Layer_1" data-name="Layer 1" xmlns="http://www.w3.org/2000/svg" viewBox="0 0 419.91 348.67">
  <g id="R9sfw9.tif">
    <path d="M419.88,29.19c-1.05,17.78-4.01,35.34-6.57,52.93-8.87,60.89-18.49,121.67-28.16,182.43-2.38,14.94-3.57,30.06-6.37,44.94-1.55,8.23-4.08,16.12-8.23,23.44-7.09,12.53-18.22,17.74-32.33,15.03-11.69-2.25-22.03-7.77-31.52-14.54-36.73-26.22-75.01-50.12-112.24-75.57-15.32-10.47-17.4-24.75-5.55-39.13,7.76-9.41,17.65-16.64,26.45-25,16.29-15.47,32.74-30.76,49.08-46.17,12.59-11.87,25.19-23.73,37.63-35.75,3.94-3.8,7.5-8.02,10.98-12.26,1.94-2.36,3.36-5.25,.97-8.17-2.39-2.92-5.53-2.8-8.62-1.27-2.83,1.4-5.61,2.93-8.24,4.67-45.66,30.23-90.63,61.48-135.6,92.73-12.85,8.93-25.79,17.73-40.94,22.59-10.62,3.41-21.15,3.76-31.91,.54-23.76-7.1-48.3-11.39-71.67-19.89-3.77-1.37-7.46-2.87-10.7-5.28-7.55-5.6-8.41-13-2.34-20.19,3.86-4.57,8.92-7.46,14.28-9.82,26.35-11.61,52.72-23.16,79.09-34.73C174.83,86.75,252.71,53.84,330.98,21.84c14.94-6.11,30-11.96,45.05-17.79,5.92-2.29,12.08-3.82,18.47-4.03,15.59-.5,24.77,8.1,25.37,23.68,.07,1.83,0,3.66,0,5.49Z"/>
  </g>
</svg>