<?xml version="1.0" encoding="utf-8"?>
<!-- Generator: Adobe Illustrator 27.0.0, SVG Export Plug-In . SVG Version: 6.00 Build 0)  -->
<svg version="1.1" id="Layer_1" xmlns="http://www.w3.org/2000/svg" xmlns:xlink="http://www.w3.org/1999/xlink" x="0px" y="0px"
	 viewBox="0 0 214.1 41.4" style="enable-background:new 0 0 214.1 41.4;" xml:space="preserve">
<g>
	<path d="M38.4,32.4c1.2-0.9,1.2-2.2,1.2-3.5c0-5.1,0-10.2,0-15.2c0-0.9,0-1.8-0.7-2.6c-0.6-0.5-0.4-1,0.4-1c3.2,0,6.5-0.2,9.6,0.1
		c5.2,0.6,6.9,5.5,3.8,9.4c-0.6,0.7-0.5,0.9,0.2,1.3c2.4,1.4,3.5,3.6,3.1,6.3c-0.4,2.9-2.5,4.3-5.1,5.1c-2.4,0.8-4.9,0.3-7.3,0.4
		c-1.6,0.1-3.2,0-4.9,0C38.6,32.7,38.5,32.5,38.4,32.4L38.4,32.4z M42,26.3c0,1.2,0,2.3,0,3.5c0,1,0.4,1.3,1.4,1.3
		c1.8,0,3.6,0.1,5.4,0c2.9-0.1,4.9-2.3,4.9-5.1c0-2.7-1.9-4.4-5-4.4c-1.8,0-3.5,0-5.3,0c-1,0-1.5,0.3-1.5,1.4
		C42,24.1,42,25.2,42,26.3L42,26.3z M42,15.8c0,0.8,0,1.6,0,2.5c-0.1,1.2,0.3,1.8,1.7,1.8c1.6-0.1,3.2,0,4.9-0.3
		c2.2-0.5,3-1.3,3.1-3.1c0.1-2.8-0.7-3.8-2.9-4.5c-0.9-0.3-1.8-0.2-2.8-0.2C43.3,11.8,42,13.1,42,15.8L42,15.8z"/>
	<path d="M138.3,32.3c-2.7,1-3.4,0.7-4.5-1.4c-1.3-2.5-2.7-4.9-4-7.4c-0.4-0.8-1-1.2-1.9-1.2c-0.7,0-1.4,0.1-2.1,0
		c-1.5-0.2-2.1,0.4-2,2c0.1,1.8,0,3.6,0,5.4c0,0.6-0.1,1.2,0.3,1.7c0.3,0.3,0.9,0.6,0.7,1.1c-0.3,0.6-0.9,0.3-1.4,0.3
		c-0.3,0-0.7,0-1.1,0c-1.3,0-2.8,0.2-1.1-1.7c0.3-0.3,0.2-0.9,0.2-1.3c0-5.5,0-11,0-16.5c0-0.6,0-1.3-0.5-1.8c-0.3-0.3-1-0.5-0.6-1
		c0.2-0.4,0.8-0.3,1.1-0.3c3.3,0.2,6.6-0.4,9.8,0.3c2.5,0.6,4.1,2.1,4.4,4.1c0.5,3.6-0.2,5.5-2.8,7c-0.8,0.4-1,0.8-0.6,1.6
		c1.2,2.1,2.2,4.3,3.5,6.5C136.4,30.7,136.9,31.8,138.3,32.3L138.3,32.3z M123.8,16.2c0,3,1.5,4.5,4.5,4.5c0.4,0,0.8,0,1.2,0
		c2-0.1,3.7-1.5,3.9-3.1c0.4-3.2-0.3-4.6-2.8-5.4c-0.8-0.3-1.6-0.3-2.4-0.3C125.3,11.8,123.8,13.3,123.8,16.2L123.8,16.2z"/>
	<path d="M107.6,32.8c-6.4,0.5-12.2-4.4-12.1-11.5c0.1-5.4,4.2-9.8,9.5-10.9c3.6-0.7,6.5,0.7,9.6,1.7c0.5,0.2,0.7,2.6,0.2,2.9
		c-0.4,0.3-0.6,0-0.8-0.3c-2.6-3.1-5.9-3.5-9.5-2.3c-4.1,1.3-6.3,4.5-6.5,8.6c-0.3,5.1,3.7,10.3,9.2,10.2c0.6,0,1.3,0,1.9,0
		c3.3-0.1,4.8-2.8,3.1-5.6c-0.8-1.3-0.2-1.4,0.8-1.4c0.6,0,1.2,0,1.8,0c0.5,0,1.2-0.2,1.4,0.4c0.2,0.6-0.4,0.7-0.7,1.1
		c-0.8,1-0.5,2.2-0.4,3.4c0,1.2-0.2,1.8-1.5,2.3C111.5,32.1,109.6,33.2,107.6,32.8L107.6,32.8z"/>
	<path d="M74.4,29c0.1,3.1-0.5,3.8-3.4,3.8c-3.3,0-6.7,0-10,0c-1,0-2,0.1-0.8-1.3c0.5-0.6,0.5-1.3,0.5-2c0-5.3,0-10.6,0-15.9
		c0-0.9-0.1-1.7-0.8-2.4c-0.8-0.8-0.2-1,0.5-1c3.9,0,7.7,0,11.6,0c1.1,0,1.8,1.7,1.2,2.7c-0.2,0.3-0.5,0.4-0.7,0.1
		c-1-1.6-2.7-1.2-4.1-1.2c-1.3,0-2.6,0-3.9,0c-1,0-1.5,0.3-1.5,1.4c0,1.9,0,3.8,0,5.8c0,0.5,0,1.2,0.5,1.2c1.9,0,3.9,1,5.6-0.6
		c0.7-0.6,1-0.3,1.2,0.4c0.1,0.5,0,1,0,1.6c0,1.1-0.1,1.8-1.4,0.8c-1.5-1.1-3.4-0.8-5.1-0.6C63.1,21.8,63,22.3,63,23
		c0,2.3,0,4.6,0,6.8c0,1,0.4,1.4,1.4,1.3c2.3,0,4.6,0,6.8,0c0.9,0,1.4-0.4,1.9-1.1C73.5,29.7,73.6,29,74.4,29L74.4,29z"/>
	<path d="M157.3,32.5c1.5-0.9,1-1.9,0.4-3c-0.6-1.2-1.2-2.4-1.6-3.7c-0.4-1.4-1.2-1.9-2.7-1.8c-1.6,0.1-3.2,0.1-4.7,0
		c-1,0-1.5,0.4-1.9,1.2c-0.7,1.7-1.4,3.3-2.1,5c-0.1,0.4-0.2,0.8-0.3,1.2c-0.1,0.4,1.3,0.9,0.1,1.3c-1,0.3-2.1,0.3-3.1-0.1
		c-0.2-0.1-0.3-0.4,0-0.6c2.1-1.4,2.3-3.9,3.2-5.9c2.1-4.7,4.1-9.4,6.1-14.1c0.2-0.5,0.3-1.4,1.1-1.4c0.7,0,0.7,0.8,0.9,1.3
		c2.4,5.7,4.8,11.3,7.3,17c0.4,1,0.8,2.1,1.7,2.8c0.2,0.2,0.5,0.3,0.3,0.7c-0.2,0.3-0.5,0.3-0.8,0.3c-1.2,0-2.4,0-3.7,0
		C157.6,32.7,157.4,32.6,157.3,32.5L157.3,32.5z M151.4,14.9c-1.1,2.5-2,4.5-2.9,6.5c-0.3,0.7,0,1.1,0.8,1.1c1.5,0,2.9,0,4.4,0
		c0.7,0,0.9-0.2,0.6-1C153.3,19.4,152.5,17.4,151.4,14.9z"/>
	<path d="M214.1,32.4c-1.7,0.5-3.3,0.4-5.3,0.2c1.6-1.1,1-2.2,0.5-3.3c-0.6-1.4-1.2-2.8-1.8-4.2c-0.4-0.9-0.9-1.2-1.9-1.2
		c-1.5,0.1-2.9,0.1-4.4,0c-1.8-0.2-2.7,0.5-3.3,2.1c-0.5,1.4-1.1,2.8-1.7,4.2c-0.1,0.4-0.4,0.7-0.3,1.2c0.1,0.4,1.2,0.8,0.3,1.2
		c-1,0.4-2.2,0.3-3.2,0c-0.3-0.1-0.2-0.5,0.1-0.7c2.2-1.8,2.5-4.5,3.6-6.8c2-4.3,3.8-8.8,5.6-13.1c0.2-0.5,0.3-1.3,1-1.2
		c0.7,0,0.8,0.8,1,1.3c2.4,5.8,4.9,11.5,7.4,17.3C212.4,30.5,212.8,31.7,214.1,32.4L214.1,32.4z M203,14.8c-1,2.2-1.9,4.3-2.8,6.4
		c-0.4,1-0.1,1.2,0.9,1.2c1.3,0,2.7,0,4,0c0.9,0,1.1-0.2,0.7-1.1C204.9,19.3,204,17.2,203,14.8z"/>
	<path d="M170.1,28.2c2.4-5.4,4.6-10.7,6.8-15.9c0.1-0.2,0.2-0.5,0.2-0.7c-1.6-2.6,0.9-1.2,1.5-1.5c0.4-0.2,0.9,0,1.4,0
		c0.6,0.1,0.7,0.5,0.2,0.8c-2.2,1.3-2.4,3.8-3.3,5.8c-2.1,4.6-4,9.4-6,14.1c-0.2,0.6-0.4,1.4-1.1,1.4c-0.8,0-0.9-0.9-1.1-1.4
		c-2.6-5.9-5.2-11.9-7.7-17.9c-0.3-0.6-0.6-1.1-1-1.6c-0.3-0.2-0.9-0.4-0.6-0.9c0.2-0.4,0.7-0.3,1.1-0.3c0.5,0,1.1-0.1,1.6,0
		c0.7,0.2,2.9-0.7,1.2,1.5c-0.2,0.3,0,0.8,0.2,1.2C165.6,17.9,167.8,22.9,170.1,28.2L170.1,28.2z"/>
	<path d="M93.2,28.6c0.2,1.4-0.2,2.3-0.5,3.2c-0.2,0.8-0.7,1-1.4,1c-4,0-8,0-11.9,0c-0.8,0-1.6-0.2-0.6-1.1c0.5-0.6,0.6-1.2,0.6-1.9
		c0-5.6,0-11.1,0-16.6c0-0.5,0-1-0.3-1.5c-0.3-0.4-1-0.7-0.6-1.2c0.2-0.3,1-0.2,1.5-0.2c0.3,0,0.6,0,0.9,0c2.1,0,2.1,0,1.2,1.7
		c-0.3,0.5-0.3,1.1-0.3,1.7c0,5.2,0,10.5,0,15.8c0,1.5,0.5,1.9,1.9,1.9c1.8-0.1,3.6-0.1,5.4,0c1.5,0.1,2.8-0.2,3.4-1.8
		C92.5,29.2,92.8,29,93.2,28.6L93.2,28.6z"/>
	<path d="M185.4,21.5c0-2.7,0-5.5,0-8.2c0-0.6,0-1.3-0.4-1.8c-0.3-0.3-1-0.5-0.6-1c0.3-0.4,0.9-0.2,1.3-0.3c0.4,0,0.8,0,1.2,0
		c2,0,2.1,0,1.1,1.6c-0.2,0.4-0.2,0.9-0.2,1.4c0,5.5,0,11.1,0,16.6c0,0.8,0.1,1.5,0.8,2c0.8,0.7,0.4,0.9-0.4,1c-0.7,0.1-1.4,0-2.1,0
		c-1.3,0-2.5,0.1-0.9-1.6c0.4-0.4,0.3-1.1,0.3-1.7C185.4,26.9,185.4,24.2,185.4,21.5L185.4,21.5z"/>
</g>
<g>
	<path d="M0,20.3C0,16.5-0.2,12.7,1.4,9c1.8-4.1,7.7-9.4,13.1-9c3.6,0.3,7.2-0.2,10.4,2.1c4.2,3,6.9,6.9,7.2,12
		c0.3,4.7,0.6,9.4-0.3,14.1c-2,11.3-15.3,16.9-24.7,10.3C2.6,35.3,0,30.8,0,25.1C0,23.5,0,21.9,0,20.3L0,20.3z M30.9,20.4
		c0-2.5,0.3-5.1-0.1-7.5C29.7,6.1,23.6,0.9,17,0.7C9.5,0.5,3.2,5,1.7,12.1c-1,5.1-0.7,10.4-0.2,15.5C2,34.1,8.4,39.7,14.7,40
		c7.8,0.4,14.2-4,15.9-11.1C31.3,26.1,30.8,23.2,30.9,20.4L30.9,20.4z"/>
	<path d="M30.1,20.6c0,1.9,0.2,3.8,0,5.6c-0.5,5.3-6.1,10.7-11.3,11.7c-7.1,1.4-15.5-3.3-16.5-10.7C1.4,21.2,0.4,15,4.2,9.4
		C9.5,1.6,20.4,1,26.7,8c2.3,2.7,3.6,5.7,3.5,9.2C30.1,18.4,30.1,19.5,30.1,20.6C30.1,20.6,30.1,20.6,30.1,20.6L30.1,20.6z
		 M2.8,20.6c-0.4,4.8,0.3,9.3,4.3,12.8c3.8,3.4,8.2,4.4,13,2.8c4.7-1.5,7.7-4.9,8.8-9.8c0.6-2.7,0.2-5.5,0.3-8.2
		c0.1-3.2-0.8-6.1-2.7-8.7c-5.1-7-15.9-7-21.1,0C3,12.9,2.5,16.6,2.8,20.6L2.8,20.6z"/>
	<path d="M17.7,29.3c1.1-3.1,2.6-5.4,3.1-8.1c0.2-0.9,0.7-0.8,1.3-0.7c0.8,0.1,0.4,0.6,0.2,1c-1.4,3.1-2.8,6.1-4.1,9.2
		c-0.2,0.4-0.3,1-0.9,0.9c-0.5,0-0.5-0.6-0.7-0.9c-0.7-1.6-1.6-3.1-2.1-4.8c-0.5-1.4-1.2-2-2.7-1.8c-1.3,0.2-1.6,0-1.5-1.6
		c0.3-3,0.1-6,0-9.1c0-0.8,0.1-1.1,0.8-1.1c1.5,0,3-0.2,4.5,0.3c2.1,0.6,3,2.3,1.9,4.3c-0.4,0.7-0.2,1,0.2,1.5
		c1.9,2.2,1.4,4.3-1.2,5.3c-1,0.4-1.2,0.7-0.8,1.6C16.6,26.5,17,27.7,17.7,29.3L17.7,29.3z M14.4,18.6c-0.2,0-0.3,0-0.5,0
		c-0.7,0.1-1.5-0.3-1.6,0.8s0.7,1,1.4,1c0.8,0,0.8,0.5,0.8,1.1c0,0.7,0.3,1.5,1.2,1.2c0.9-0.2,1.6-0.8,1.8-1.7
		c0.2-0.9-0.2-1.6-0.9-2.1C16,18.5,15.2,18.6,14.4,18.6L14.4,18.6z M13.9,17.3c1.3,0,2.6,0.1,2.6-1.6c0-1.6-1-2-2.4-2
		c-1.3,0-1.9,0.2-1.9,1.7C12.2,16.7,12.4,17.6,13.9,17.3z"/>
</g>
</svg>
