<?xml version="1.0" encoding="UTF-8"?>
<svg id="Layer_1" data-name="Layer 1" xmlns="http://www.w3.org/2000/svg" viewBox="0 0 175.71 74.71">
  <path d="M0,74.19c1.22-.91,1.19-2.18,1.18-3.47-.03-5.07-.01-10.15,0-15.22,0-.94,.05-1.85-.74-2.58-.58-.53-.38-.95,.41-.95,3.22,0,6.46-.25,9.64,.11,5.18,.58,6.87,5.55,3.75,9.4-.59,.72-.51,.87,.22,1.29,2.43,1.4,3.48,3.59,3.06,6.32-.44,2.88-2.54,4.33-5.13,5.13-2.39,.75-4.88,.3-7.32,.38-1.62,.05-3.25,.01-4.88,.01-.06-.14-.13-.28-.19-.41Zm3.53-6.06c0,1.17,.03,2.34,0,3.5-.03,.99,.41,1.35,1.37,1.33,1.81-.04,3.63,.05,5.44-.03,2.9-.12,4.93-2.29,4.89-5.1-.05-2.74-1.89-4.4-4.96-4.44-1.76-.02-3.51,.03-5.27-.02-1.03-.03-1.52,.33-1.47,1.41,.05,1.11,.01,2.22,.01,3.33Zm0-10.56c0,.82,.05,1.64-.01,2.45-.1,1.24,.3,1.85,1.66,1.76,1.62-.11,3.25,.04,4.87-.33,2.16-.49,3.01-1.26,3.07-3.13,.08-2.77-.66-3.84-2.85-4.48-.93-.27-1.85-.24-2.77-.24q-3.97-.02-3.96,3.97Z"/>
  <path d="M99.86,74.09c-2.68,.97-3.35,.69-4.46-1.41-1.3-2.47-2.68-4.9-4-7.36-.43-.79-1.03-1.24-1.95-1.22-.7,.01-1.41,.07-2.11-.02-1.53-.18-2.11,.4-2,1.96,.12,1.8,.02,3.62,.03,5.43,0,.58-.06,1.16,.33,1.68,.27,.35,.89,.64,.65,1.13-.27,.56-.94,.26-1.43,.32-.35,.04-.7,0-1.05,0-1.31,.02-2.82,.2-1.07-1.72,.26-.28,.2-.89,.2-1.35,.01-5.49,0-10.97,0-16.46,0-.64,.04-1.27-.46-1.81-.28-.3-1-.45-.62-1.05,.23-.37,.75-.27,1.14-.26,3.26,.15,6.55-.4,9.79,.33,2.53,.57,4.14,2.1,4.43,4.09,.52,3.6-.22,5.55-2.79,6.97-.78,.43-1.01,.78-.56,1.61,1.18,2.14,2.25,4.34,3.47,6.46,.59,1.03,1.09,2.22,2.45,2.68Zm-14.5-16.12q0,4.49,4.49,4.48c.41,0,.82,.01,1.22,0,1.99-.1,3.65-1.45,3.86-3.14,.4-3.2-.34-4.61-2.75-5.43-.8-.27-1.6-.28-2.41-.28q-4.41-.01-4.41,4.38Z"/>
  <path d="M67.91,20.33c-.05-3.83-.22-7.66,1.41-11.32C71.15,4.87,77.03-.44,82.41,.03c3.58,.31,7.21-.19,10.41,2.11,4.16,2.99,6.9,6.9,7.19,11.99,.27,4.69,.57,9.44-.27,14.12-2.02,11.32-15.29,16.88-24.69,10.26-4.56-3.22-7.22-7.67-7.15-13.45,.02-1.57,0-3.15,0-4.72Zm30.84,.06c0-2.51,.34-5.07-.06-7.51-1.12-6.77-7.23-12-13.83-12.18-7.48-.21-13.82,4.32-15.27,11.44-1.03,5.09-.67,10.37-.23,15.5,.55,6.49,6.92,12.06,13.23,12.38,7.85,.4,14.16-4.02,15.89-11.11,.69-2.83,.15-5.69,.28-8.53Z"/>
  <path d="M69.16,74.59c-6.37,.5-12.25-4.4-12.14-11.53,.08-5.39,4.2-9.76,9.53-10.86,3.57-.74,6.48,.71,9.59,1.66,.48,.15,.65,2.61,.24,2.92-.4,.3-.61-.03-.84-.3-2.61-3.07-5.94-3.47-9.53-2.31-4.13,1.33-6.3,4.51-6.55,8.63-.31,5.13,3.7,10.25,9.25,10.18,.64,0,1.29,.02,1.93,0,3.34-.14,4.85-2.76,3.13-5.62-.77-1.29-.18-1.36,.83-1.37,.58,0,1.17-.04,1.75,0,.49,.04,1.15-.22,1.39,.41,.22,.55-.43,.74-.69,1.09-.78,1.04-.46,2.25-.44,3.39,.02,1.17-.25,1.8-1.51,2.28-2.02,.77-3.91,1.86-5.95,1.45Z"/>
  <path d="M35.94,70.82c.11,3.06-.54,3.78-3.37,3.78-3.34,0-6.67,0-10.01,0-.96,0-2,.07-.84-1.32,.46-.55,.53-1.26,.53-1.99-.01-5.31-.01-10.62,0-15.94,0-.91-.13-1.73-.83-2.4-.82-.79-.19-.99,.48-.99,3.86-.02,7.73-.04,11.59,.01,1.07,.02,1.77,1.72,1.22,2.71-.19,.35-.49,.4-.67,.11-1.03-1.63-2.66-1.16-4.13-1.21-1.29-.04-2.58,.03-3.86-.02-1.04-.04-1.49,.35-1.47,1.42,.05,1.93,0,3.85,.02,5.78,0,.46-.03,1.17,.5,1.16,1.9-.03,3.94,.95,5.65-.62,.7-.64,1.04-.33,1.16,.41,.09,.51,.05,1.05,.05,1.57,0,1.11-.13,1.78-1.44,.83-1.53-1.11-3.36-.78-5.09-.63-.71,.06-.86,.62-.85,1.29,.03,2.28,.04,4.55,0,6.83-.01,.97,.39,1.36,1.36,1.35,2.28-.03,4.57-.03,6.85,0,.87,.01,1.43-.42,1.9-1.05,.34-.45,.51-1.07,1.24-1.09Z"/>
  <path d="M118.89,74.27c1.46-.95,.96-1.94,.44-2.98-.6-1.2-1.23-2.4-1.61-3.67-.43-1.43-1.22-1.92-2.68-1.81-1.57,.12-3.16,.07-4.74,.01-.98-.04-1.5,.38-1.86,1.24-.68,1.67-1.43,3.31-2.12,4.97-.15,.37-.19,.78-.27,1.17-.08,.45,1.27,.93,.11,1.27-.98,.29-2.09,.28-3.11-.08-.21-.08-.26-.43-.04-.58,2.05-1.43,2.28-3.87,3.2-5.88,2.13-4.65,4.05-9.38,6.1-14.07,.24-.54,.32-1.4,1.12-1.38,.73,.02,.72,.83,.93,1.33,2.44,5.65,4.85,11.32,7.31,16.97,.44,1,.8,2.08,1.72,2.8,.22,.17,.52,.34,.32,.7-.17,.3-.49,.29-.77,.3-1.22,.01-2.44,0-3.66,0-.14-.1-.28-.21-.42-.31Zm-5.93-17.61c-1.11,2.48-2.02,4.47-2.89,6.48-.31,.71-.04,1.08,.79,1.06,1.46-.03,2.92-.02,4.37,0,.74,0,.93-.23,.6-.95-.93-2.04-1.8-4.11-2.87-6.59Z"/>
  <path d="M175.71,74.2c-1.69,.52-3.26,.45-5.29,.23,1.58-1.13,1.04-2.16,.51-3.25-.65-1.36-1.22-2.76-1.78-4.16-.35-.89-.94-1.22-1.89-1.19-1.46,.06-2.94,.13-4.38-.02-1.75-.18-2.71,.5-3.26,2.12-.49,1.42-1.15,2.79-1.74,4.18-.15,.37-.4,.69-.29,1.15,.1,.41,1.2,.78,.34,1.16-.99,.43-2.19,.35-3.25-.02-.3-.11-.17-.49,.09-.7,2.16-1.78,2.52-4.53,3.62-6.85,2.02-4.31,3.75-8.75,5.63-13.12,.21-.5,.32-1.27,1.04-1.23,.67,.03,.81,.75,1.04,1.28,2.45,5.77,4.89,11.54,7.35,17.31,.5,1.17,.97,2.39,2.26,3.13Zm-11.14-17.58c-.99,2.25-1.88,4.31-2.8,6.36-.43,.96-.08,1.25,.88,1.23,1.34-.04,2.68-.03,4.02,0,.91,.02,1.14-.21,.72-1.11-.95-2.04-1.81-4.13-2.82-6.48Z"/>
  <path d="M131.67,70c2.35-5.45,4.59-10.66,6.83-15.87,.09-.21,.25-.52,.16-.65-1.64-2.64,.91-1.18,1.53-1.5,.36-.18,.92-.05,1.38,.04,.55,.1,.74,.5,.22,.81-2.2,1.3-2.41,3.76-3.33,5.75-2.14,4.63-4.01,9.39-6,14.09-.24,.57-.39,1.39-1.14,1.39-.77,0-.88-.86-1.12-1.4-2.61-5.95-5.18-11.92-7.73-17.9-.26-.61-.55-1.13-1.02-1.59-.26-.25-.87-.37-.57-.91,.23-.42,.72-.28,1.11-.3,.52-.03,1.07-.1,1.57,.01,.74,.17,2.95-.73,1.25,1.51-.25,.33,0,.78,.16,1.16,2.2,5.03,4.38,10.07,6.68,15.37Z"/>
  <path d="M54.76,70.43c.2,1.36-.25,2.26-.53,3.19-.22,.75-.69,.99-1.42,.98-3.98-.01-7.96,0-11.94,0-.85,0-1.57-.15-.63-1.11,.55-.56,.63-1.21,.63-1.92,0-5.55,0-11.09,0-16.64,0-.52,.01-1.03-.32-1.51-.27-.39-1.04-.73-.59-1.25,.25-.29,.98-.17,1.5-.22,.29-.02,.58,0,.88,0,2.07,0,2.09,.01,1.18,1.72-.29,.55-.3,1.12-.3,1.7,0,5.25,.05,10.51-.03,15.76-.02,1.5,.52,1.93,1.94,1.86,1.81-.09,3.63-.07,5.44,0,1.52,.05,2.79-.2,3.39-1.83,.08-.22,.39-.36,.8-.72Z"/>
  <path d="M146.94,63.29c0-2.74,0-5.48,0-8.22,0-.64,.04-1.27-.45-1.81-.28-.3-1.01-.46-.62-1.05,.27-.42,.86-.25,1.31-.27,.41-.02,.82,0,1.23,0,2.04,0,2.05,.01,1.12,1.64-.25,.44-.22,.9-.22,1.36,0,5.54,0,11.07-.01,16.61,0,.79,.1,1.48,.78,2.02,.82,.65,.42,.95-.38,1.01-.7,.05-1.4,.02-2.1,.03-1.28,.03-2.51,.06-.92-1.59,.44-.45,.27-1.11,.27-1.69,.01-2.68,0-5.36,0-8.04Z"/>
  <path d="M97.99,20.58c0,1.87,.16,3.75-.03,5.6-.54,5.34-6.05,10.68-11.32,11.68-7.14,1.36-15.51-3.29-16.53-10.68-.82-5.93-1.86-12.2,1.95-17.78,5.3-7.75,16.23-8.4,22.48-1.36,2.35,2.65,3.61,5.65,3.48,9.21-.04,1.11,0,2.22,0,3.33,0,0-.01,0-.02,0Zm-27.32,.02c-.42,4.78,.35,9.28,4.26,12.78,3.81,3.4,8.19,4.38,12.99,2.82,4.74-1.54,7.66-4.89,8.81-9.76,.64-2.71,.25-5.46,.32-8.18,.08-3.16-.75-6.05-2.66-8.66-5.11-6.97-15.94-6.96-21.08-.04-2.46,3.31-2.94,7-2.65,11.04Z"/>
  <path d="M85.56,29.29c1.06-3.09,2.59-5.4,3.14-8.09,.19-.9,.73-.8,1.28-.7,.75,.14,.45,.58,.24,1.04-1.39,3.06-2.76,6.14-4.11,9.22-.19,.43-.27,.95-.86,.93-.54-.02-.5-.59-.66-.92-.75-1.57-1.6-3.11-2.14-4.76-.46-1.41-1.17-2.05-2.65-1.84-1.26,.18-1.64-.01-1.47-1.61,.32-2.99,.11-6.05,0-9.07-.03-.79,.1-1.11,.85-1.1,1.51,.02,3.02-.17,4.52,.28,2.13,.65,3.02,2.35,1.95,4.25-.4,.71-.17,.99,.24,1.47,1.86,2.17,1.4,4.31-1.24,5.34-.96,.37-1.2,.69-.75,1.62,.55,1.13,.99,2.32,1.67,3.95Zm-3.26-10.72c-.18,0-.35-.02-.53,0-.65,.07-1.53-.26-1.64,.81-.11,1.07,.69,1.04,1.41,1.05,.83,0,.85,.45,.84,1.14,0,.69,.26,1.5,1.25,1.24,.87-.23,1.6-.77,1.78-1.73,.16-.87-.16-1.61-.91-2.12-.67-.46-1.45-.39-2.21-.39Zm-.53-1.3c1.34,.01,2.62,.12,2.63-1.62,.01-1.64-1.04-1.96-2.45-2-1.27-.03-1.94,.23-1.89,1.72,.05,1.34,.26,2.2,1.71,1.9Z"/>
</svg>