<?xml version="1.0" encoding="UTF-8"?>
<svg id="Layer_1" data-name="Layer 1" xmlns="http://www.w3.org/2000/svg" viewBox="0 0 185.21 101.03">
  <path d="M98.92,40.82c-3.21-.16-5.88-2.29-7.43-5.72-2.32-5.14-4.22-10.45-5.02-16.08-.32-2.23-.29-4.45,.33-6.66,.85-3.05,4.77-6.21,8.05-5.84,2.56,.29,4.48,1.62,6,3.58,1.4,1.81,2.4,3.86,3.28,5.96,1.66,4,3.32,8.01,3.95,12.32,.54,3.73,.07,7.28-2.77,10.13-1.52,1.52-3.47,2.31-6.38,2.3Z"/>
  <path d="M63.95,23.87c.01-1.55-.03-3.11,.37-4.64,1.07-4.07,5.61-6.86,9.73-5.92,1.32,.3,2.25,1.16,3.05,2.18,1.74,2.22,2.73,4.81,3.47,7.49,1.4,5.04,2.51,10.14,2.56,15.41,.04,3.72-1.64,6.01-5.19,7.17-1.86,.61-3.76,.79-5.71,.47-1.36-.23-2.44-.85-3.26-1.96-1.48-2.02-2.35-4.31-3.03-6.68-1.28-4.41-1.98-8.92-1.99-13.52Z"/>
  <path d="M115.04,.91c2.53-.08,4.39,.99,5.91,2.74,.47,.54,.91,1.13,1.21,1.76,2.12,4.54,4.22,9.09,5.37,14,.66,2.81,.79,5.61-.64,8.27-1.6,2.99-5.58,5.09-8.66,4.54-2.14-.38-3.61-1.75-4.86-3.39-1.87-2.46-3.03-5.29-3.9-8.22-1.15-3.84-2.25-7.72-2.28-11.77-.03-4.59,3.4-7.94,7.86-7.94Z"/>
  <path d="M48.54,31.89c-.13,3.67-.92,6.91-3.2,9.66-.6,.73-1.29,1.35-2.07,1.87-1.61,1.07-2.48,1.03-3.93-.25-1.58-1.39-2.85-3.04-4.02-4.77-3.38-5.02-6.08-10.36-7.32-16.33-.31-1.49-.51-2.99-.33-4.53,.4-3.6,3.36-5.87,6.98-5.31,3.73,.58,6.55,2.63,8.81,5.5,3.3,4.21,4.78,9.09,5.08,14.17Z"/>
  <path d="M145.75,17.92c-.09,1.37-.37,2.61-1.49,3.51-.39,.31-.7,.71-1.08,1.03-2.83,2.37-5.67,2.27-8.34-.28-1.6-1.52-2.76-3.36-3.77-5.3-1.59-3.04-3-6.16-3.24-9.65-.23-3.34,.97-5.37,3.49-6.75,1.42-.78,2.83-.52,4.21,.14,1.44,.69,2.57,1.77,3.54,2.99,2.62,3.28,4.7,6.87,6.04,10.87,.38,1.13,.57,2.29,.64,3.45Z"/>
  <path d="M25.63,78.67c0-8.06,5.43-14.07,13.55-15,7.1-.81,13.47,2.9,15.75,9.45,1.79,5.15,1.25,10.13-2.13,14.58-1.69,2.23-4.02,3.61-6.67,4.4-3.81,1.14-7.62,1.05-11.38-.22-5.84-1.97-9.11-6.76-9.11-13.22Zm3.83-.07c0,3.04,.64,5.34,2.13,7.72,4.13,6.59,13.52,6.81,17.94,.43,3.23-4.66,3.34-11.86,.25-16.74-3.89-6.15-12.8-6.64-17.3-.92-2.19,2.78-3.02,6.02-3.02,9.51Z"/>
  <path d="M83.8,90.18c-2.75-2.53-2.44-4.32,1.13-6.5-.15-.13-.28-.25-.42-.36-2.03-1.59-2.82-3.9-2.1-6.31,.75-2.49,2.59-3.7,5.04-4.14,1.21-.22,2.42-.13,3.59,.28,.49,.17,.58,.07,.5-.45-.28-2,1.18-3.58,3.23-3.54,.26,0,.58,.04,.58,.34,0,.65-.02,1.3-.13,1.94-.06,.35-.47,.2-.73,.22-.69,.06-1.34,.24-1.56,.96-.22,.72-.06,1.38,.56,1.93,3.15,2.78,2.23,7.85-1.71,9.4-1.42,.56-2.89,.76-4.4,.45-.96-.19-1.8-.01-2.49,.69-.9,.91-.66,2.16,.52,2.66,.75,.32,1.56,.43,2.37,.43,1.84,.02,3.67,.05,5.49,.36,3.06,.51,4.43,1.76,4.89,4.45,.48,2.74-.62,5.31-3.1,6.52-3.63,1.77-7.41,2.1-11.18,.4-3.56-1.6-4.54-4.97-2.44-7.97,.59-.84,1.42-1.35,2.35-1.76Zm5.18,.55c-.93,0-1.7,0-2.47,.14-1.77,.31-2.72,1.16-3.17,2.97-.45,1.83-.22,3.5,1.36,4.71,2.25,1.72,6.88,1.66,9.09-.11,1.61-1.29,1.85-3.02,1.39-4.9-.37-1.51-1.49-2.41-3.28-2.61-1.02-.11-2.04-.29-2.92-.19Zm-.06-16.87c-1.33-.01-2.32,.54-2.89,1.68-1.05,2.08-1.09,4.18,.03,6.26,.57,1.06,1.47,1.69,2.7,1.7,1.27,0,2.22-.61,2.79-1.71,1.08-2.08,1.08-4.19-.01-6.26-.56-1.06-1.45-1.7-2.62-1.66Z"/>
  <path d="M63.03,77.36c.79-1.19,1.42-2.19,2.4-2.89,2.6-1.84,5.42-1.96,8.24-.74,2.22,.96,3,3.07,3.06,5.29,.12,4.23,.05,8.46,.05,12.69,0,.36-.02,.76-.48,.76-.74,0-1.5,0-2.22-.14-.52-.1-.37-.65-.37-1.03-.01-3.39,0-6.78-.01-10.17,0-.93,.03-1.86-.16-2.79-.35-1.67-1.12-2.99-2.85-3.48-1.89-.54-3.66-.27-5.11,1.15-1.45,1.41-2.06,3.23-2.26,5.2-.35,3.35-.1,6.71-.16,10.07-.02,1.25-.11,1.34-1.34,1.19q-1.77-.21-1.77-1.99c0-5.26,0-10.52,.02-15.77,0-.53-.17-1.16,.72-1.24,1.18-.1,1.49,.04,1.69,1.02,.18,.88,.34,1.76,.56,2.88Z"/>
  <path d="M171.09,89.01c.03,.86-.04,1.58-.92,2.11-2.47,1.48-5.1,2.21-7.95,1.73-4.12-.68-6.65-3.18-7.65-7.21-1.1-4.43,.42-8.9,3.81-11.34,3.94-2.85,9.96-1.89,12.44,2.01,1,1.57,1.3,3.34,1.28,5.18-.01,.75-.34,1.01-1.1,1.01-4.08-.03-8.16-.01-12.24-.01-1.22,0-1.22,0-1.21,1.26,.03,3.75,2.2,6.73,5.54,7.51,2.67,.62,5.04-.16,7.2-1.73,.2-.15,.38-.32,.58-.47,.04-.03,.12-.02,.25-.04Zm-7.82-7.92c1.55,0,3.11-.03,4.66,.01,.75,.02,.98-.28,.93-1-.07-1-.26-1.96-.58-2.91-1.42-4.15-6.58-4.17-8.73-1.34-.96,1.27-1.52,2.69-1.82,4.24-.14,.71,.1,1.03,.87,1.01,1.55-.04,3.11-.01,4.66-.01Z"/>
  <path d="M125.68,88.95c.2,1.06-.04,1.72-.91,2.22-2.54,1.46-5.22,2.18-8.14,1.63-3.84-.72-6.29-3.06-7.28-6.78-1.1-4.18-.34-7.97,2.9-11.04,3.97-3.76,10.97-2.81,13.51,1.79,.86,1.55,1.02,3.24,.94,4.98-.03,.73-.5,.74-1.03,.74-3.7,0-7.41,0-11.11,0-.5,0-1,.02-1.49,0-.54-.02-.77,.19-.81,.75-.36,4.54,2.81,8.2,7.3,8.24,2,.02,3.83-.75,5.44-1.97,.2-.15,.38-.31,.69-.56Zm-7.77-7.85c1.62,0,3.24-.02,4.86,0,.67,.01,.91-.27,.82-.9-.15-1.08-.31-2.14-.69-3.18-1.36-3.76-6.21-3.99-8.43-1.42-1.16,1.34-1.74,2.91-2.07,4.62-.14,.72,.12,.88,.76,.88,1.59-.02,3.18,0,4.76,0Z"/>
  <path d="M3.5,77.53c0,4.08,0,8.16,0,12.24,0,1.26,0,1.28,1.23,1.26,3.89-.04,7.79,.13,11.67-.17,.26-.02,.67-.09,.61,.34-.07,.5-.12,1.09-.75,1.28-.23,.07-.49,.06-.74,.06-4.77,0-9.53-.02-14.3,.02-.94,0-1.22-.3-1.21-1.24,.04-8.78,.03-17.56,.01-26.34,0-.8,.2-1.12,1.04-1.09,2.79,.07,2.4-.34,2.42,2.35,.02,3.77,0,7.54,0,11.3h.02Z"/>
  <path d="M101.37,77.31c0-4.7,.02-9.39-.02-14.09,0-.95,.3-1.25,1.24-1.22,2.11,.07,1.86-.15,1.86,1.85,0,9.11,0,18.22,0,27.34q0,1.33-1.35,1.34-1.75,0-1.75-1.7c0-4.51,0-9.02,0-13.53,0,0,.01,0,.02,0Z"/>
  <path d="M134.14,76.64c.41-.13,.5-.49,.69-.76,1.31-1.85,3.12-2.8,5.35-3,.99-.09,1.13,.06,1.07,1.09,0,.09,0,.19-.02,.28-.09,.55,0,1.25-.31,1.61-.37,.43-.94-.18-1.44-.26-1.78-.27-3.45,.53-4.3,2.13-.66,1.24-.87,2.58-.87,3.96,0,3.14,0,6.28,0,9.42,0,1.41-.12,1.52-1.49,1.35q-1.73-.22-1.73-1.94c0-5.19,.01-10.39,.04-15.58,0-.52-.29-1.25,.68-1.35,1.36-.13,1.55-.02,1.81,1.09,.15,.65,.17,1.34,.52,1.95Z"/>
  <path d="M149.12,83.04c0,2.77-.03,5.54,.02,8.31,.01,.88-.25,1.22-1.16,1.2-2.2-.04-1.93,.06-1.93-1.91,0-5.26,0-10.52,0-15.78,0-1.25,.01-1.26,1.24-1.26,2,0,1.82-.21,1.83,1.78,0,2.55,0,5.11,0,7.66Z"/>
  <path d="M185.21,73.08c0,2.09-1.49,3.61-3.56,3.61-1.97,0-3.62-1.58-3.65-3.49-.03-1.96,1.64-3.61,3.63-3.62,2.03,0,3.57,1.51,3.58,3.5Zm-1.7,1.83c.28-.38,.48-.8,.58-1.26,.26-1.13-.36-2.38-1.41-2.87-1.08-.5-2.28-.21-3,.74-.75,1-.67,2.54,.18,3.43,.9,.94,2.3,.98,3.54,.08,.03-.04,.07-.09,.1-.13Z"/>
  <path d="M20.7,73.07c-.38-1.43-.41-2.88-.63-4.3-.22-1.38-.33-2.78-.54-4.16-.12-.76,.09-1.08,.9-1.09,1.84-.02,1.85-.05,1.6,1.75-.32,2.37-.65,4.74-.98,7.11-.03,.24-.02,.5-.35,.69Z"/>
  <path d="M147.79,68.11c-1.16,0-2.1-.93-2.09-2.06,.01-1.11,1.01-2.06,2.13-2.03,1.12,.03,2,.91,2.01,2.03,.02,1.18-.87,2.06-2.05,2.06Z"/>
  <path d="M183.41,75.04c-.67,.03-1.25-.07-1.36-.9-.03-.22-.21-.39-.47-.37-.29,.03-.3,.27-.32,.49-.03,.39-.08,.79-.62,.71-.49-.07-.4-.48-.41-.81-.02-.65,.02-1.31-.01-1.96-.03-.58,.2-.85,.77-.93,.54-.07,1.06-.05,1.56,.15,.46,.19,.91,.62,.66,1.07-.53,.94,0,1.64,.3,2.42-.03,.04-.07,.08-.1,.13Z"/>
</svg>