<?xml version="1.0" encoding="utf-8"?>
<!-- Generator: Adobe Illustrator 27.0.0, SVG Export Plug-In . SVG Version: 6.00 Build 0)  -->
<svg version="1.1" id="Layer_1" xmlns="http://www.w3.org/2000/svg" xmlns:xlink="http://www.w3.org/1999/xlink" x="0px" y="0px"
	 viewBox="0 0 172.1 39" style="enable-background:new 0 0 172.1 39;" xml:space="preserve">
<g>
	<path d="M25.6,16.7c0-8.1,5.4-14.1,13.6-15c7.1-0.8,13.5,2.9,15.8,9.4c1.8,5.2,1.2,10.1-2.1,14.6c-1.7,2.2-4,3.6-6.7,4.4
		c-3.8,1.1-7.6,1.1-11.4-0.2C28.9,27.9,25.6,23.1,25.6,16.7L25.6,16.7z M29.5,16.6c0,3,0.6,5.3,2.1,7.7c4.1,6.6,13.5,6.8,17.9,0.4
		c3.2-4.7,3.3-11.9,0.2-16.7C45.9,1.9,37,1.4,32.5,7.1C30.3,9.9,29.5,13.1,29.5,16.6z"/>
	<path d="M83.8,28.2c-2.8-2.5-2.4-4.3,1.1-6.5c-0.2-0.1-0.3-0.2-0.4-0.4c-2-1.6-2.8-3.9-2.1-6.3c0.8-2.5,2.6-3.7,5-4.1
		c1.2-0.2,2.4-0.1,3.6,0.3c0.5,0.2,0.6,0.1,0.5-0.4c-0.3-2,1.2-3.6,3.2-3.5c0.3,0,0.6,0,0.6,0.3c0,0.7,0,1.3-0.1,1.9
		c-0.1,0.3-0.5,0.2-0.7,0.2c-0.7,0.1-1.3,0.2-1.6,1s-0.1,1.4,0.6,1.9c3.2,2.8,2.2,7.8-1.7,9.4c-1.4,0.6-2.9,0.8-4.4,0.4
		c-1-0.2-1.8,0-2.5,0.7c-0.9,0.9-0.7,2.2,0.5,2.7c0.8,0.3,1.6,0.4,2.4,0.4c1.8,0,3.7,0.1,5.5,0.4c3.1,0.5,4.4,1.8,4.9,4.4
		c0.5,2.7-0.6,5.3-3.1,6.5c-3.6,1.8-7.4,2.1-11.2,0.4c-3.6-1.6-4.5-5-2.4-8C82,29.1,82.9,28.6,83.8,28.2L83.8,28.2z M89,28.7
		c-0.9,0-1.7,0-2.5,0.1c-1.8,0.3-2.7,1.2-3.2,3c-0.4,1.8-0.2,3.5,1.4,4.7c2.2,1.7,6.9,1.7,9.1-0.1c1.6-1.3,1.8-3,1.4-4.9
		c-0.4-1.5-1.5-2.4-3.3-2.6C90.9,28.8,89.9,28.6,89,28.7L89,28.7z M88.9,11.9c-1.3,0-2.3,0.5-2.9,1.7c-1.1,2.1-1.1,4.2,0,6.3
		c0.6,1.1,1.5,1.7,2.7,1.7c1.3,0,2.2-0.6,2.8-1.7c1.1-2.1,1.1-4.2,0-6.3C91,12.5,90.1,11.8,88.9,11.9L88.9,11.9z"/>
	<path d="M63,15.4c0.8-1.2,1.4-2.2,2.4-2.9c2.6-1.8,5.4-2,8.2-0.7c2.2,1,3,3.1,3.1,5.3c0.1,4.2,0.1,8.5,0.1,12.7
		c0,0.4,0,0.8-0.5,0.8c-0.7,0-1.5,0-2.2-0.1c-0.5-0.1-0.4-0.7-0.4-1c0-3.4,0-6.8,0-10.2c0-0.9,0-1.9-0.2-2.8c-0.3-1.7-1.1-3-2.8-3.5
		c-1.9-0.5-3.7-0.3-5.1,1.2c-1.4,1.4-2.1,3.2-2.3,5.2c-0.3,3.3-0.1,6.7-0.2,10.1c0,1.2-0.1,1.3-1.3,1.2c-1.2-0.1-1.8-0.8-1.8-2
		c0-5.3,0-10.5,0-15.8c0-0.5-0.2-1.2,0.7-1.2c1.2-0.1,1.5,0,1.7,1C62.7,13.4,62.8,14.3,63,15.4L63,15.4z"/>
	<path d="M171.1,27c0,0.9,0,1.6-0.9,2.1c-2.5,1.5-5.1,2.2-7.9,1.7c-4.1-0.7-6.6-3.2-7.6-7.2c-1.1-4.4,0.4-8.9,3.8-11.3
		c3.9-2.8,10-1.9,12.4,2c1,1.6,1.3,3.3,1.3,5.2c0,0.8-0.3,1-1.1,1c-4.1,0-8.2,0-12.2,0c-1.2,0-1.2,0-1.2,1.3c0,3.8,2.2,6.7,5.5,7.5
		c2.7,0.6,5-0.2,7.2-1.7c0.2-0.2,0.4-0.3,0.6-0.5C170.9,27,171,27,171.1,27L171.1,27z M163.3,19.1c1.6,0,3.1,0,4.7,0
		c0.8,0,1-0.3,0.9-1c-0.1-1-0.3-2-0.6-2.9c-1.4-4.2-6.6-4.2-8.7-1.3c-1,1.3-1.5,2.7-1.8,4.2c-0.1,0.7,0.1,1,0.9,1
		C160.1,19.1,161.7,19.1,163.3,19.1L163.3,19.1z"/>
	<path d="M125.7,27c0.2,1.1,0,1.7-0.9,2.2c-2.5,1.5-5.2,2.2-8.1,1.6c-3.8-0.7-6.3-3.1-7.3-6.8c-1.1-4.2-0.3-8,2.9-11
		c4-3.8,11-2.8,13.5,1.8c0.9,1.6,1,3.2,0.9,5c0,0.7-0.5,0.7-1,0.7c-3.7,0-7.4,0-11.1,0c-0.5,0-1,0-1.5,0c-0.5,0-0.8,0.2-0.8,0.8
		c-0.4,4.5,2.8,8.2,7.3,8.2c2,0,3.8-0.8,5.4-2C125.2,27.4,125.4,27.2,125.7,27L125.7,27z M117.9,19.1c1.6,0,3.2,0,4.9,0
		c0.7,0,0.9-0.3,0.8-0.9c-0.2-1.1-0.3-2.1-0.7-3.2c-1.4-3.8-6.2-4-8.4-1.4c-1.2,1.3-1.7,2.9-2.1,4.6c-0.1,0.7,0.1,0.9,0.8,0.9
		C114.7,19.1,116.3,19.1,117.9,19.1L117.9,19.1z"/>
	<path d="M3.5,15.5c0,4.1,0,8.2,0,12.2c0,1.3,0,1.3,1.2,1.3c3.9,0,7.8,0.1,11.7-0.2c0.3,0,0.7-0.1,0.6,0.3c-0.1,0.5-0.1,1.1-0.8,1.3
		c-0.2,0.1-0.5,0.1-0.7,0.1c-4.8,0-9.5,0-14.3,0c-0.9,0-1.2-0.3-1.2-1.2C0,20.5,0,11.8,0,3c0-0.8,0.2-1.1,1-1.1
		C3.8,2,3.5,1.6,3.5,4.2C3.5,8,3.5,11.8,3.5,15.5L3.5,15.5L3.5,15.5z"/>
	<path d="M101.4,15.3c0-4.7,0-9.4,0-14.1c0-1,0.3-1.2,1.2-1.2c2.1,0.1,1.9-0.2,1.9,1.8c0,9.1,0,18.2,0,27.3c0,0.9-0.5,1.3-1.3,1.3
		c-1.2,0-1.8-0.6-1.8-1.7C101.3,24.3,101.3,19.8,101.4,15.3C101.3,15.3,101.4,15.3,101.4,15.3L101.4,15.3z"/>
	<path d="M134.1,14.6c0.4-0.1,0.5-0.5,0.7-0.8c1.3-1.8,3.1-2.8,5.4-3c1-0.1,1.1,0.1,1.1,1.1c0,0.1,0,0.2,0,0.3
		c-0.1,0.6,0,1.2-0.3,1.6c-0.4,0.4-0.9-0.2-1.4-0.3c-1.8-0.3-3.4,0.5-4.3,2.1c-0.7,1.2-0.9,2.6-0.9,4c0,3.1,0,6.3,0,9.4
		c0,1.4-0.1,1.5-1.5,1.3c-1.2-0.1-1.7-0.8-1.7-1.9c0-5.2,0-10.4,0-15.6c0-0.5-0.3-1.2,0.7-1.3c1.4-0.1,1.6,0,1.8,1.1
		C133.8,13.3,133.8,14,134.1,14.6L134.1,14.6z"/>
	<path d="M149.1,21c0,2.8,0,5.5,0,8.3c0,0.9-0.2,1.2-1.2,1.2c-2.2,0-1.9,0.1-1.9-1.9c0-5.3,0-10.5,0-15.8c0-1.2,0-1.3,1.2-1.3
		c2,0,1.8-0.2,1.8,1.8C149.1,15.9,149.1,18.5,149.1,21L149.1,21z"/>
	<path d="M20.7,11.1c-0.4-1.4-0.4-2.9-0.6-4.3c-0.2-1.4-0.3-2.8-0.5-4.2c-0.1-0.8,0.1-1.1,0.9-1.1c1.8,0,1.9,0,1.6,1.8
		c-0.3,2.4-0.6,4.7-1,7.1C21,10.6,21,10.9,20.7,11.1z"/>
	<path d="M147.8,6.1c-1.2,0-2.1-0.9-2.1-2.1c0-1.1,1-2.1,2.1-2c1.1,0,2,0.9,2,2C149.9,5.2,149,6.1,147.8,6.1z"/>
</g>
</svg>
