<?xml version="1.0" encoding="utf-8"?>
<!-- Generator: Adobe Illustrator 27.0.0, SVG Export Plug-In . SVG Version: 6.00 Build 0)  -->
<svg version="1.1" id="Layer_1" xmlns="http://www.w3.org/2000/svg" xmlns:xlink="http://www.w3.org/1999/xlink" x="0px" y="0px"
	 viewBox="0 0 95.6 113" style="enable-background:new 0 0 95.6 113;" xml:space="preserve">
<path d="M57.8,1.7C57.2,4.6,46.2,46,45.6,49.3S40.9,71.3,41,76.1c0,4.8,0.1,6.7,0.9,7.7c0.8,1,0.8,1.9,0.4,2.4
	c-0.4,0.6-1.9,0.7-2.7-0.4c-0.7-1.2-1.4-2.9-1.3-7.5c0.1-4.7,0.5-8.8,2.4-19.5s4.4-19.2,4.6-20.3s-0.6-1.4-0.9-0.2
	c-0.1,0.5-3.2,8.9-7.5,18.5c-5.8,12.8-13.1,27.6-13.5,28.2c0.6-5,4.3-28.1,4.4-29.2c0.1-1.1-0.6-0.8-0.9,0.2c-0.3,1-7.8,21-9.1,24.8
	s-9.3,22.6-10.2,24.3c-0.8,1.7-3.7,6.1-4.2,6.6s-1.4,1.3-2,1.3s-1.1,0-1.3-0.4c-0.8-1.5,0.2-1.9,0.7-2.2c0.2-0.1,2.2-3.2,4.1-6.7
	c1.9-3.6,3.7-7.7,4.1-8.8c0.4-1,6-14.5,11.1-28.6C26,50.5,31.3,33.9,31.5,33.4c0.3-1,0.9-1.5,1.8-1.3s1,1.1,0.9,2.2
	C34,35.4,29.6,64.1,29.5,65s0.6,0.8,0.9,0s11.9-28.2,13-31.9S54.6,2.7,55,1.5C55.4,0.3,58.5-1.2,57.8,1.7
	C57.8,1.7,57.8,1.7,57.8,1.7z M69.7,58.8c-5.1,7.4-9.7,13.2-13.5,17.5c-0.5,0.5-1.5,0.6-2-0.4c-0.3-0.8-0.7-1.9-0.7-3.3s0-3,0-3.5
	s-0.4-0.6-0.7-0.2s-4.7,8.6-5.5,10c-0.8,1.4-4.5,6.8-5.1,7.5s-1.4,0.5-1.8,0c-0.3-0.5-0.5-0.9,0.2-1.8c1.1-1.3,4.4-6.8,6.6-10.6
	c1.5-2.7,8.7-18.2,9.1-19.2c0.4-1,1.1-1.4,1.8-1.1s1,1,0.7,2.2s-2,8.9-2.2,10.4c-0.2,1.5-0.5,4.1-0.4,4.7c0.1,0.6,0.7,0.7,1.3-0.2
	c0.7-0.9,6.9-8.7,10.6-14.4c4.5-6.9,12.9-20.9,13.5-22.3c0.6,1.9,0.9,2.7,1.1,3.3C81.2,40.2,75.8,49.9,69.7,58.8L69.7,58.8
	L69.7,58.8z M95.3,38c-0.6,1-16.7,31.3-22.5,45.3c6-20.8,19.3-45.2,20.1-46.5c0.8-1.2,1.4-1.4,2-1.1C95.4,36.1,95.9,37,95.3,38
	L95.3,38L95.3,38z M90.5,69.9c-1,0.4-1.4-0.6-1.8-1.6s-8.4-31.2-8.4-31.2l1.6-3.8c0,0,9.3,33.5,9.5,34.5S91.3,69.5,90.5,69.9
	L90.5,69.9L90.5,69.9z M62.5,46.7c-0.5,1.9-1.8,3.2-2.8,2.9c-1-0.3-1.4-2-0.8-3.9s1.8-3.2,2.8-2.9C62.7,43.1,63.1,44.9,62.5,46.7
	C62.5,46.7,62.5,46.7,62.5,46.7z"/>
</svg>
