<?xml version="1.0" encoding="UTF-8"?>
<svg id="Layer_1" data-name="Layer 1" xmlns="http://www.w3.org/2000/svg" viewBox="0 0 95.71 117.95">
  <defs>
    <style>
      .cls-1 {
        fill-rule: evenodd;
      }
    </style>
  </defs>
  <path class="cls-1" d="M16.88,90.34c3.53-.04,8.65-.38,10.75,1,.41,.27,.84,.61,1.04,1.09,.4,.94,.01,2.2-.41,2.77-.31,.41-.95,.78-1.45,1-.22,.09-.5,.09-.68,.23h.09c.41,.12,.82,.24,1.22,.36,.85,.35,1.85,.89,2.36,1.59,1.06,1.46,.75,3.65-.36,4.76-.76,.76-1.71,1.17-2.9,1.5-1,.28-2.31,.18-3.54,.18h-6.13c-.08-.14-.1-.29-.09-.54,.13-.07,.22-.09,.45-.09,.47-.3,.89-.09,1.13-.68,.24-.58,.09-2,.09-2.77v-6.26c0-.95,.18-2.4-.23-2.99-.24-.35-.77-.46-1.36-.45-.11-.2-.11-.48,0-.68h0Zm19.38,.68v5.31c.86,0,1.97,.12,2.45-.27,.18-.15,.3-.56,.36-.82,.05-.2-.07-.46,.09-.54h.5c.14,.27,.09,.82,.09,1.22v2.63c-.15,.08-.33,.1-.59,.09-.08-.14-.1-.29-.09-.54-.19-.29-.14-.67-.41-.86-.47-.35-1.6-.24-2.41-.23v7.17c3.25,.03,6.13,.59,6.13-2.77,.17-.11,.28-.14,.59-.14,.24,.46,.1,2.71,.09,3.45-.47,.24-2.73,.09-3.49,.09h-8.62c-.08-.14-.1-.29-.09-.54,.12-.07,.19-.09,.41-.09,.43-.28,.88-.06,1.13-.64,.27-.62,.09-2.3,.09-3.13v-5.9c0-.74,.16-2.06-.05-2.68-.11-.33-.37-.6-.68-.73-.6-.24-.9,.25-.91-.68,.47-.24,2.69-.09,3.45-.09h8.44c.32,.53,.14,2.6,.14,3.45-.15,.08-.33,.1-.59,.09-.06-.11-.08-.13-.09-.32-.15-.25-.09-.67-.18-.95-.12-.35-.33-.73-.54-1-.69-.87-3.62-.6-5.22-.59h0Zm10.26-.68h3.31c.57,0,1.2-.05,1.54,.18,.9,.6,1.05,2.22,1.45,3.31,1.04,2.82,1.76,5.77,2.81,8.62,.2,.55,.4,1.16,.86,1.45,.14,.09,1.2,.31,1.22,.36v.45c-.44,.22-1.44,.09-2.04,.09h-4.9c-.08-.14-.1-.29-.09-.54,.13-.07,.22-.09,.45-.09,.15-.1,.51-.14,.68-.18,.09-.15,.16-.17,.18-.41-.33-1.03-.67-2.06-1-3.09h-4.31v.05h-.05c-.07,1.1-1.11,2.29-.86,3.36,.39,.12,.75,.27,1.32,.27,.08,.14,.1,.29,.09,.54-.27,.14-.82,.09-1.22,.09h-2.63c-.08-.14-.1-.29-.09-.54,.12-.07,.19-.09,.41-.09,.33-.23,.83-.17,1.09-.5,.62-.79,.87-2.35,1.22-3.4,.42-1.26,.86-2.61,1.32-3.86,.12-.42,.24-.85,.36-1.27,.2-.53,.33-1.11,.54-1.68,.07-.19,.24-.48,.27-.68,.11-.63-.76-1.51-1.18-1.68-.18-.07-.61,0-.77-.09-.2-.1-.06-.56,0-.68h0Zm8.39,0h6.85c.08,.15,.1,.33,.09,.59-.14,.08-.29,.1-.54,.09-.35,.23-.75,.16-.95,.54-.18,.35-.14,.93-.14,1.45v2.86c0,2.52-.4,6.79,1,7.85,.36,.27,.81,.43,1.32,.54,1.04,.23,2.18-.41,2.68-.77,1.87-1.36,1.77-4.75,1.77-7.99v-3.49c-.05-.2-.17-.39-.23-.59-.39-.23-.66-.41-1.32-.41-.08-.15-.1-.33-.09-.59,.27-.14,.82-.09,1.22-.09h2.63c.08,.15,.1,.33,.09,.59-.14,.08-.29,.1-.54,.09-.4,.27-.77,.13-1,.63-.19,.42-.09,1.21-.09,1.77v4.81c-.16,.72-.01,1.52-.18,2.22-.47,1.99-1.03,3.52-2.77,4.22-.74,.3-2.08,.38-2.99,.18-.21-.01-.42-.03-.64-.05-.71-.18-1.43-.38-2-.73-2.44-1.51-2.63-3.92-2.63-7.85v-4.17c-.12-.52-.38-.85-.86-1-.2-.06-.69,.03-.77-.14-.09-.19,.05-.51,.09-.59h0Zm22.64,.68v12.07c.12,.49,.33,.84,.77,1,.56,.21,.86-.21,.86,.64-.44,.22-1.44,.09-2.04,.09h-4.9c-.08-.14-.1-.29-.09-.54,.12-.07,.19-.09,.41-.09,.38-.24,.78-.09,1.04-.5,.37-.59,.18-2.64,.18-3.58v-9.07c-.54,0-1.26-.09-1.72,.05-1.11,.33-1.72,1.31-1.72,2.72-.15,.08-.33,.1-.59,.09-.23-.46-.1-2.71-.09-3.45,.47-.24,2.69-.09,3.45-.09h8.49c.24,.46,.1,2.71,.09,3.45-.15,.08-.33,.1-.59,.09-.08-.14-.1-.29-.09-.54-.18-.28-.14-.73-.27-1.04-.49-1.14-1.5-1.29-3.18-1.27h0Zm4.4-.68h3.22c.43,0,1.1-.1,1.45,.05,.78,.32,1.07,1.26,1.45,2,.83,1.59,1.67,3.18,2.45,4.81,.04-.05,.02-.01,.05-.09,.39-.44,.54-1.14,.82-1.68,.42-.81,.79-1.66,1.22-2.5,.24-.46,.6-.91,.68-1.5-.1-.1-.11-.17-.27-.23-.25-.19-.74-.19-1.18-.18-.08-.15-.1-.33-.09-.59,.27-.14,.82-.09,1.22-.09h2.63c.08,.15,.1,.33,.09,.59-.14,.08-.29,.1-.54,.09-.27,.19-.66,.15-.86,.41-.66,.84-.99,1.97-1.5,2.95-.43,.83-.83,1.69-1.27,2.54-.16,.31-.44,.67-.54,1,.01,1.03,.03,2.06,.05,3.09v2.18c.09,.37,.31,.72,.64,.86,.56,.24,1-.18,1,.68-.44,.22-1.44,.09-2.04,.09h-4.9c-.08-.14-.1-.29-.09-.54,.12-.07,.19-.09,.41-.09,.43-.26,.83-.11,1.09-.59,.32-.6,.14-2.43,.14-3.31v-1.09c-.11-.33-.38-.69-.54-1-.41-.78-.74-1.59-1.18-2.31-.68-1.11-1.05-2.42-1.72-3.54-.26-.43-.54-.89-1-1.13-.12-.06-.92-.21-.95-.27-.1-.19,.05-.51,.09-.59h0Zm-59.76,.68v5.08c1.04,.02,2.08-.16,2.5-.77,.52-.77,.5-2.82,0-3.58-.41-.62-1.44-.74-2.5-.73h0Zm24.73,8.8h3.86v-.09c-.27-.37-.3-.94-.45-1.41-.35-1.03-.75-2.14-1.09-3.18-.14-.42-.16-.96-.41-1.27-.05,.48-.3,.95-.45,1.36-.26,.83-.51,1.66-.77,2.5-.24,.64-.57,1.37-.68,2.09h0Zm-24.73-3.04v7.4c1.55,.02,3.35,.12,3.99-.77,.35-.49,.3-1.05,.45-1.77,.07-.34,.11-.91,.05-1.22v-.54c-.1-.42-.16-.89-.32-1.27-.65-1.53-1.95-1.84-4.18-1.82h0Z"/>
  <path class="cls-1" d="M69.43,114.88c-.1-.02-.11-.04-.18-.09v-.05c-.06-.01-.12-.03-.18-.05v-.05c-.09-.03-.18-.06-.27-.09v-.05h-.14v-.05h-.14v-.05h-.14v-.05h-.18v-.05h-.18v-.05h-.18v-.05h-.18v-.05c-.23-.03-.45-.06-.68-.09-1.07-.34-2.49-.37-3.31-.95-.03-.05-.06-.09-.09-.14-.29-.28-.41-.46-.41-1.04v-.32h.05v-.14h.05v-.09h.05c.01-.06,.03-.12,.05-.18,.03-.01,.06-.03,.09-.05v-.09c.06-.05,.12-.09,.18-.14,.01-.03,.03-.06,.05-.09h.09s.03-.06,.05-.09h.09s.03-.06,.05-.09h.09v-.05h.09v-.05h.14v-.05h.09v-.05c.09-.01,.18-.03,.27-.05v-.05c.2-.03,.39-.06,.59-.09v-.05c.33-.01,.67-.03,1-.05v-.05c.23-.06,.7,0,.86,.05h.64v.05h.32v.05h.23v.05h.23v.05c.09,.01,.18,.03,.27,.05v.05h.09v.05h.14v.05h.09v.05h.09v.05s.09,.03,.14,.05c.01,.03,.03,.06,.05,.09h.09c.06,.08,.12,.15,.18,.23,.14,.14,.29,.2,.32,.45-.16,.09-.27,.2-.5,.23-.11-.14-.21-.27-.32-.41h-.09s-.03-.06-.05-.09h-.09s-.03-.06-.05-.09c-.09-.03-.18-.06-.27-.09v-.05h-.09v-.05c-.11-.01-.21-.03-.32-.05-.78-.26-2.34-.27-3.13,0h-.18v.05c-.09,.01-.18,.03-.27,.05v.05c-.09,.03-.18,.06-.27,.09-.01,.03-.03,.06-.05,.09h-.09c-.06,.08-.12,.15-.18,.23-.03,.01-.06,.03-.09,.05-.01,.06-.03,.12-.05,.18-.05,.1-.15,.3-.09,.5,.19,.61,.81,.75,1.41,.95h.23c.99,.32,2.22,.38,3.18,.73h.18v.05h.14v.05h.09v.05h.14v.05c.06,.01,.12,.03,.18,.05v.05c.06,.01,.12,.03,.18,.05,.01,.03,.03,.06,.05,.09h.09c.06,.08,.12,.15,.18,.23,.33,.33,.54,.45,.54,1.13v.41c-.25,.79-.95,1.23-1.68,1.54-.21,.05-.42,.09-.64,.14v.05c-.21,.03-.42,.06-.64,.09h-.41v.05c-.23,.06-.7,0-.86-.05h-.64v-.05h-.32v-.05h-.23v-.05c-.18-.03-.36-.06-.54-.09v-.05c-.08-.01-.15-.03-.23-.05v-.05h-.09v-.05h-.14v-.05h-.09v-.05h-.09s-.03-.06-.05-.09c-.06-.01-.12-.03-.18-.05-.01-.03-.03-.06-.05-.09h-.09s-.06-.09-.09-.14h-.09v-.05c-.09-.08-.18-.15-.27-.23v-.18c.05-.03,.06-.07,.09-.09h.09s.06-.09,.09-.14h.18c.09,.16,.14,.13,.27,.23,.03,.05,.06,.09,.09,.14h.09s.03,.06,.05,.09c.09,.03,.18,.06,.27,.09v.05c.06,.01,.12,.03,.18,.05v.05h.14v.05h.09v.05c.15,.03,.3,.06,.45,.09v.05c.15,.01,.3,.03,.45,.05v.05h.41v.05h.64c.74,0,1.21-.07,1.72-.27,.09-.01,.18-.03,.27-.05v-.05h.09v-.05h.09v-.05h.09v-.05h.09v-.05h.09v-.05h.09s.03-.06,.05-.09h.09c.06-.08,.12-.15,.18-.23,.05-.03,.09-.06,.14-.09,.08-.11,.09-.23,.18-.32,.02-.29,.09-.61-.05-.86-.03-.01-.06-.03-.09-.05v-.09h-.05c-.05-.07-.06-.08-.09-.18h0Zm-32.08,0v2.86c-.12,.05-.32,.05-.5,.05-.19-.37-.09-1.61-.09-2.18v-5.17c.24-.12,.63-.09,1-.09h2.09c.17,.14,1,.01,1.27,.09v.05h.27v.05h.23v.05h.18v.05h.18v.05c.14,.03,.27,.06,.41,.09v.05c.09,.03,.18,.06,.27,.09v.05h.09v.05c.06,.01,.12,.03,.18,.05,.01,.03,.03,.06,.05,.09h.09c.08,.09,.15,.18,.23,.27,.06,.05,.12,.09,.18,.14v.09s.06,.03,.09,.05c.01,.06,.03,.12,.05,.18h.05v.14h.05c.13,.33,.09,1.06-.05,1.36h-.05v.09h-.05c-.01,.06-.03,.12-.05,.18-.05,.03-.09,.06-.14,.09v.09s-.06,.03-.09,.05c-.05,.06-.09,.12-.14,.18h-.09s-.06,.09-.09,.14c-.06,.01-.12,.03-.18,.05-.01,.03-.03,.06-.05,.09h-.09v.05h-.09v.05h-.14c-1.27,.56-3.25,.5-5.08,.5h0Zm11.25,.41h-3.9c-.05,.24-.21,.44-.32,.64-.03,.09-.06,.18-.09,.27h-.05c-.03,.09-.06,.18-.09,.27h-.05c-.01,.06-.03,.12-.05,.18h-.05c-.01,.06-.03,.12-.05,.18h-.05v.09h-.05v.09h-.05v.09h-.05v.09h-.05v.09h-.05v.09h-.05v.09h-.05v.09h-.05c-.07,.14,.04,.08-.09,.18v.05h-.5c-.03-.08-.04-.14-.05-.27h.05c.01-.06,.03-.12,.05-.18h.05v-.09h.05v-.09h.05v-.09h.05v-.09h.05v-.09h.05v-.09h.05c.03-.09,.06-.18,.09-.27h.05v-.14h.05c.01-.06,.03-.12,.05-.18h.05c.03-.09,.06-.18,.09-.27,.67-1.25,1.28-2.61,1.95-3.86,.03-.09,.06-.18,.09-.27h.05c.01-.06,.03-.12,.05-.18h.05v-.14h.05c.03-.09,.06-.18,.09-.27h.05v-.09h.05v-.09h.05v-.09h.05v-.09h.05c.11-.2,.09-.32,.27-.45v-.05h.32c.08,.12,.15,.24,.23,.36,.03,.09,.06,.18,.09,.27h.05v.09h.05v.09h.05v.09h.05v.09h.05v.09h.05v.14h.05v.09h.05v.09h.05v.09h.05v.09h.05v.09h.05v.09h.05v.09h.05v.09h.05v.09h.05v.09h.05v.09h.05v.09h.05v.09h.05c.03,.09,.06,.18,.09,.27h.05c.01,.06,.03,.12,.05,.18h.05c.01,.06,.03,.12,.05,.18h.05c.01,.06,.03,.12,.05,.18h.05v.09h.05v.09h.05v.09h.05v.09h.05v.09h.05v.09h.05v.09h.05v.09h.05c.01,.08,.03,.15,.05,.23h.05c.03,.09,.06,.18,.09,.27h.05v.09h.05v.09h.05v.09h.05v.09h.05v.09h.05v.09h.05v.09h.05c.03,.09,.06,.18,.09,.27h.05c.01,.06,.03,.12,.05,.18h.05c.01,.06,.03,.12,.05,.18h.05v.09h.05v.09h.05v.09h.05v.09h.05v.09h.05v.09h.05v.09h.05v.09h.05v.09h.05c.01,.06,.03,.12,.05,.18h.05c.01,.06,.03,.12,.05,.18h.05v.14h.05c.06,.12,.08,.19,.09,.36-.13,.05-.35,.05-.54,.05-.03-.05-.06-.09-.09-.14h-.05v-.09h-.05v-.09h-.05v-.09h-.05v-.09h-.05c-.01-.06-.03-.12-.05-.18h-.05c-.01-.06-.03-.12-.05-.18h-.05c-.01-.06-.03-.12-.05-.18h-.05v-.09h-.05v-.09h-.05v-.09h-.05v-.09h-.05c-.03-.09-.06-.18-.09-.27h-.05c-.03-.09-.06-.18-.09-.27h-.05v-.09c-.08-.15-.18-.26-.23-.46h0Zm4.04-.59v2.99c-.17,.09-.27,.09-.54,.09-.07-.19-.05-.52-.05-.77v-6.62c.25-.09,.71-.05,1.04-.05h2.09c.17,.15,.61-.03,.86,.05v.05h.36v.05h.27v.05h.23v.05h.18v.05h.18v.05h.14v.05h.14v.05h.14v.05c.06,.01,.12,.03,.18,.05v.05c.06,.01,.12,.03,.18,.05,.01,.03,.03,.06,.05,.09h.09c.06,.08,.12,.15,.18,.23h.09s.03,.09,.05,.14c.05,.03,.09,.06,.14,.09,.19,.27,.37,.87,.23,1.32-.01,.11-.03,.21-.05,.32h-.05c-.03,.09-.06,.18-.09,.27-.11,.18-.31,.31-.45,.45-.03,.05-.06,.09-.09,.14h-.09s-.06,.09-.09,.14c-.06,.01-.12,.03-.18,.05-.01,.03-.03,.06-.05,.09-.35,.12-.7,.24-1.04,.36-.19,.06-.37-.02-.5,.09,.17,.14,.33,.27,.5,.41,.03,.05,.06,.09,.09,.14h.09c.08,.09,.15,.18,.23,.27h.09c.09,.11,.18,.21,.27,.32h.09c.08,.09,.15,.18,.23,.27h.09c.09,.11,.18,.21,.27,.32h.09c.05,.06,.09,.12,.14,.18h.05s.03,.06,.05,.09h.09c.08,.09,.15,.18,.23,.27,.05,.01,.09,.03,.14,.05,.08,.09,.15,.18,.23,.27h.09c.09,.11,.18,.21,.27,.32h.05v.14c-.16,.06-.45,.05-.68,.05-.03-.05-.06-.09-.09-.14h-.09c-.09-.11-.18-.21-.27-.32h-.09c-.09-.11-.18-.21-.27-.32h-.09c-.08-.09-.15-.18-.23-.27h-.09c-.09-.11-.18-.21-.27-.32-.55-.4-.99-.87-1.54-1.27-.09-.11-.18-.21-.27-.32h-.09s-.06-.09-.09-.14c-.91,0-1.82,0-2.72,0h0Zm8.49-4.36h.45c.19,.37,.09,1.61,.09,2.18v5.17c-.17,.09-.27,.09-.54,.09-.18-.36-.09-1.29-.09-1.82v-3.95c0-.52-.1-1.32,.09-1.68h0Zm-23.78,.54v3.45c1.83,.02,3.81,.09,4.99-.54,.06-.01,.12-.03,.18-.05,.01-.03,.03-.06,.05-.09h.09c.21-.15,.65-.81,.5-1.32-.52-1.71-3.54-1.46-5.81-1.45h0Zm15.29,0v3.27h2.54c.45,0,.89,.01,1.22-.09h.23v-.05c.11-.01,.21-.03,.32-.05v-.05h.09v-.05h.14v-.05c.09-.03,.18-.06,.27-.09v-.05h.09s.03-.06,.05-.09h.09s.06-.09,.09-.14c.17-.17,.35-.31,.45-.54v-.14h.05v-.18h.05v-.27c-.06-.18-.12-.36-.18-.54-.03-.01-.06-.03-.09-.05-.08-.09-.15-.18-.23-.27h-.09s-.03-.06-.05-.09c-.06-.01-.12-.03-.18-.05v-.05h-.14c-1.17-.51-3.03-.41-4.72-.41h0Zm-4.31,3.9c-.03-.16-.12-.25-.18-.36-.01-.08-.03-.15-.05-.23h-.05c-.03-.09-.06-.18-.09-.27h-.05c-.03-.09-.06-.18-.09-.27h-.05c-.03-.09-.06-.18-.09-.27h-.05v-.14h-.05c-.01-.06-.03-.12-.05-.18h-.05v-.09h-.05v-.09h-.05v-.09h-.05c-.03-.09-.06-.18-.09-.27h-.05v-.14h-.05v-.09h-.05v-.09h-.05v-.09h-.05v-.09h-.05v-.09c-.11-.2-.26-.39-.32-.64h-.05v.05c-.15,.13-.17,.36-.27,.54h-.05v.09h-.05v.14h-.05v.09h-.05v.09c-.43,.8-.84,1.66-1.22,2.5,1.12,0,2.24,0,3.36,0h0Z"/>
  <path d="M57.83,1.67c-.62,2.88-11.66,44.32-12.23,47.64-.57,3.32-4.68,21.95-4.64,26.77,.04,4.82,.09,6.72,.88,7.74,.8,1.02,.84,1.86,.44,2.43-.4,.58-1.94,.71-2.65-.44-.71-1.15-1.41-2.88-1.33-7.52,.09-4.65,.53-8.85,2.43-19.47,1.9-10.62,4.37-19.16,4.64-20.35,.27-1.19-.57-1.37-.88-.22-.13,.49-3.22,8.92-7.52,18.49-5.75,12.8-13.14,27.63-13.47,28.19,.57-5.01,4.29-28.1,4.42-29.2,.13-1.11-.62-.75-.88,.22-.27,.97-7.78,21.02-9.06,24.78-1.28,3.76-9.32,22.61-10.16,24.33-.84,1.73-3.67,6.06-4.2,6.64-.53,.58-1.41,1.33-1.99,1.33s-1.06,.04-1.33-.44c-.81-1.49,.22-1.95,.66-2.21,.22-.13,2.23-3.17,4.09-6.69,1.92-3.62,3.68-7.74,4.08-8.8,.37-.98,5.96-14.46,11.08-28.56,5.75-15.82,11.1-32.4,11.24-32.94,.27-1.02,.93-1.5,1.77-1.33s.97,1.11,.88,2.21c-.09,1.11-4.55,29.82-4.64,30.75s.62,.8,.88,0,11.89-28.23,13.04-31.86S54.56,2.65,54.96,1.45c.4-1.2,3.49-2.66,2.87,.22h0Zm11.85,57.15c-5.07,7.37-9.68,13.23-13.48,17.48-.46,.51-1.55,.6-1.99-.44-.35-.84-.66-1.95-.66-3.32s-.04-2.96,0-3.54-.44-.62-.66-.22-4.73,8.58-5.52,9.96c-.8,1.37-4.46,6.77-5.08,7.52-.62,.75-1.41,.49-1.77,0-.35-.49-.46-.94,.22-1.77,1.1-1.35,4.42-6.78,6.63-10.62,1.52-2.65,8.69-18.21,9.06-19.25,.37-1.03,1.1-1.4,1.77-1.11s.96,1.03,.66,2.21c-.3,1.18-1.99,8.92-2.21,10.4-.22,1.47-.52,4.06-.44,4.65,.07,.59,.66,.66,1.33-.22,.66-.89,6.91-8.7,10.61-14.38,4.5-6.92,12.86-20.93,13.48-22.34,.62,1.86,.88,2.74,1.1,3.32-1.55,3.05-6.89,12.75-13.04,21.68h0Zm25.63-20.79c-.55,1-16.68,31.3-22.54,45.35,5.97-20.8,19.33-45.24,20.11-46.46,.77-1.22,1.44-1.44,1.99-1.11,.55,.33,.99,1.22,.44,2.21h0Zm-4.86,31.86c-.99,.44-1.44-.55-1.77-1.55s-8.4-31.19-8.4-31.19l1.55-3.76s9.28,33.51,9.5,34.51c.22,1-.02,1.61-.89,1.99h0Zm-27.91-23.16c-.53,1.88-1.78,3.17-2.77,2.89-1-.28-1.37-2.04-.84-3.92,.53-1.88,1.78-3.17,2.77-2.89,1,.28,1.37,2.04,.84,3.92h0Z"/>
</svg>