<?xml version="1.0" encoding="UTF-8"?>
<svg id="Layer_1" data-name="Layer 1" xmlns="http://www.w3.org/2000/svg" viewBox="0 0 191.68 58.03">
  <defs>
    <style>
      .cls-1 {
        letter-spacing: 0em;
      }

      .cls-2 {
        letter-spacing: 0em;
      }

      .cls-3 {
        font-family: AcherusFeral-Light, 'Acherus Feral';
        font-size: 53.44px;
        font-weight: 300;
      }
    </style>
  </defs>
  <text class="cls-3" transform="translate(39.11 45.42)"><tspan x="0" y="0">R</tspan><tspan class="cls-1" x="36.02" y="0">O</tspan><tspan class="cls-2" x="80.48" y="0">S</tspan><tspan x="115.05" y="0">A</tspan></text>
  <g id="xLMvUx.tif">
    <g>
      <path d="M26.17,35.91c-1.67-1.2-3.4-.97-5.13-.24-.89,.38-1.66,.96-2.46,1.49-1.94,1.29-3.85,2.64-5.98,3.63-1.18,.55-2.38,.99-3.71,.99-1.57,0-2.69-.73-3.45-2.06-.45-.8-.73-1.66-.91-2.55-.05-.23-.1-.44-.37-.53-2.34-.79-3.67-2.47-4.02-4.86-.42-2.89,.11-5.67,1.52-8.23,.99-1.8,2.64-2.74,4.56-3.25,.84-.22,1.69-.37,2.54-.5,.37-.06,.41,.07,.34,.4-.3,1.31-.36,2.63-.07,3.96,.55,2.58,2.17,4.25,4.53,5.27,2.47,1.07,5.03,1.9,7.54,2.88,1.22,.47,2.41,1,3.45,1.82,.64,.51,1.22,1.09,1.63,1.8Z"/>
      <path d="M37.17,33.44c.02,2.05-.43,3.73-1.6,5.17-1.13,1.38-2.66,2.13-4.35,2.59-.09,.03-.18,.06-.28,.07-.66,.05-1.08,.45-1.53,.91-1.56,1.61-3.33,2.91-5.64,3.24-1.6,.24-3.05-.2-4.36-1.11-1.3-.9-2.31-2.09-3.17-3.42-.12-.18-.13-.31,.04-.46,1.98-1.7,4.11-3.14,6.73-3.64,1.31-.25,2.56,.14,3.78,.59,.09,.03,.18,.06,.27,.11,.27,.15,.42,.07,.58-.2,1.98-3.38,4.85-5.69,8.52-7.03,.36-.13,.52-.04,.62,.32,.25,1.02,.43,2.04,.41,2.87Z"/>
      <path d="M27.29,35.82c-.76-1.2-1.56-2.25-2.53-3.18-.16-.15-.1-.3,.02-.43,.18-.2,.37-.41,.57-.59,.76-.72,1.53-1.42,2.28-2.15,1.56-1.51,2.97-3.12,3.77-5.18,1.01-2.63,.43-5.72-1.45-7.53-1.05-1.01-2.33-1.58-3.73-1.89-.07-.02-.14-.02-.2-.04-.1-.04-.25,0-.28-.12-.03-.12,.1-.18,.18-.25,.73-.57,1.36-1.23,2.02-1.87,.9-.87,2-1.18,3.21-1.05,1.23,.13,1.94,.94,2.38,2.03,.24,.59,.4,1.2,.43,1.84,.02,.41,.18,.64,.61,.79,2.52,.87,3.94,2.61,4.18,5.3,.13,1.43-.09,2.82-.48,4.18-.42,1.47-1.52,2.34-2.79,3.04-1.6,.88-3.27,1.62-4.82,2.6-1.61,1.03-2.82,2.35-3.25,4.26-.01,.06-.05,.12-.11,.26Z"/>
      <path d="M23.16,13.88c-.48,.15-.86,.27-1.23,.39-4.67,1.54-7.25,4.86-8.16,9.59-.22,1.16-.28,2.34-.25,3.52,0,.13,.07,.3-.08,.38-.14,.07-.26-.07-.37-.13-1.41-.85-2.21-2.15-2.6-3.7-.64-2.54-.51-5.07,.39-7.52,.79-2.15,2.42-3.33,4.65-3.71,1.98-.34,3.9,0,5.8,.53,.59,.17,1.19,.33,1.86,.66Z"/>
      <path d="M19.53,30.34c-1.65-.03-2.99-.73-4.08-1.93-.67-.73-.79-1.68-.75-2.63,.09-1.95,.82-3.71,1.69-5.42,.13-.26,.31-.35,.59-.35,.62,0,1.23,.08,1.84,.17,.36,.05,.46,.17,.34,.53-.29,.87-.32,1.73,.22,2.53,.41,.61,1.01,.99,1.66,1.31,1.12,.56,2.36,.82,3.5,1.33,.89,.4,1.69,.91,2.28,1.71,.13,.18,.21,.32-.08,.43-1.84,.76-3.64,1.61-5.58,2.1-.53,.13-1.07,.24-1.63,.21Z"/>
      <path d="M2.85,19.26c.23-1.15,.58-2.26,1.06-3.33,1.9-4.18,5.21-6.46,9.69-7.12,1.69-.25,3.39-.22,5.08,.01,.12,.02,.28,0,.33,.13,.05,.14-.1,.21-.18,.3-.61,.67-1.23,1.33-1.84,2-.2,.22-.42,.31-.72,.32-1.76,.09-3.42,.51-4.79,1.71-1.27,1.11-1.97,2.54-2.32,4.17-.02,.11-.06,.22-.06,.32,0,.35-.18,.44-.52,.47-1.75,.11-3.43,.57-5.09,1.12-.13,.04-.26,.09-.39,.13-.2,.06-.29,0-.25-.22Z"/>
      <path d="M28.85,10.13c-.04,.14-.18,.15-.29,.19-1.09,.45-2.04,1.12-2.87,1.95-.3,.3-.57,.63-.81,.98-.19,.27-.35,.29-.64,.17-1.6-.65-3.2-1.3-4.92-1.58-.23-.04-.46-.04-.7-.05-.23,0-.31-.08-.17-.29,1.31-1.94,3.02-3.27,5.45-3.32,1.27-.03,2.45,.4,3.56,1,.41,.22,.8,.48,1.19,.73,.08,.05,.17,.09,.19,.21Z"/>
      <path d="M30.51,21.81c-.04,2.11-1.05,3.73-2.57,5.08-.17,.15-.28,.11-.36-.11-.23-.64-.6-1.17-1.24-1.47-.17-.08-.23-.18-.1-.35,1.66-2.23,1.33-4.61,.48-7.01-.07-.19-.15-.38-.24-.57-.17-.39-.14-.45,.3-.41,.86,.08,1.63,.39,2.26,.98,1.11,1.04,1.42,2.39,1.47,3.85Z"/>
      <path d="M17.52,18.55c.38-.36,.77-.53,1.13-.73,1.52-.86,3.11-1.56,4.82-1.97,.4-.09,.65-.02,.9,.33,1.72,2.38,1.98,4.93,.89,7.63-.05,.12-.08,.32-.22,.31-.17,0-.14-.21-.17-.33-.4-1.39-.99-2.67-2.07-3.68-1.05-.97-2.29-1.48-3.71-1.56-.49-.03-.97,0-1.55,0Z"/>
      <path d="M23.74,23.23c0,.49-.2,.65-.67,.52-.87-.24-1.68-.6-2.22-1.38-.22-.31-.35-.65-.35-1.03,0-.19,.06-.29,.27-.23,.96,.3,1.91,.61,2.64,1.35,.21,.21,.32,.47,.32,.77Z"/>
    </g>
  </g>
</svg>