<?xml version="1.0" encoding="UTF-8"?>
<svg id="Layer_1" data-name="Layer 1" xmlns="http://www.w3.org/2000/svg" viewBox="0 0 116.61 119.68">
  <path d="M42.91,16.22c-.08,.26-.33,.36-.53,.5-1.23,.8-2.54,1.46-3.83,2.17-1.19,.65-2.38,1.31-3.58,1.96-1.99,1.07-3.74,2.48-5.48,3.9-.9,.74-1.77,1.5-2.59,2.38,.44-.18,.92-.31,1.31-.56,1.32-.87,2.78-1.01,4.29-.88,.99,.08,1.96,.3,2.88,.72,.1,.04,.2,.08,.24,.2-.01,.04-.01,.11-.03,.11-.49,.15-.96,.38-1.43,.59-.42,.19-.88,.21-1.34,.14-.92-.13-1.84-.22-2.76-.38-.92-.16-1.79,0-2.68,.23-.92,.24-1.62,.72-2.25,1.42-1.26,1.42-2.52,2.85-3.68,4.35-.14,.18-.26,.37-.34,.6,.44-.34,.85-.71,1.31-1.02,1.56-1.06,3.3-1.3,5.14-1.12,1.16,.11,2.31,.35,3.48,.35,.5,0,.99,.01,1.49-.07,.26-.04,.49,.02,.58,.29,.09,.25-.08,.41-.26,.54-.23,.16-.47,.3-.71,.45-1.48,.9-3.03,1.66-4.73,2.07-1.35,.33-2.71,.49-4.1,.13-.58-.15-1.19-.22-1.78-.32-.88-.15-1.57,.18-2.07,.89-1.25,1.76-2.35,3.62-3.39,5.51-.03,.05-.03,.11-.04,.18,.06,0,.11,0,.13-.02,1.02-1.1,2.34-1.58,3.77-1.84,1.1-.2,2.22-.33,3.25-.82,.16-.08,.34-.11,.48,.05,.16,.19,.06,.37-.07,.52-1.39,1.63-2.95,3.04-5,3.79-.61,.22-1.26,.32-1.91,.32-1.31,0-2.11,.64-2.62,1.82-.98,2.29-1.88,4.6-2.56,6.99-.02,.08-.04,.16-.02,.28,.53-1.61,1.61-2.78,2.92-3.77,1.48-1.11,3.55-2,4.4-1.88-.2,.3-.4,.57-.56,.86-.15,.28-.21,.61-.4,.88-.27,.4-.63,.71-1.04,.96-1.04,.62-2.09,1.22-3.12,1.84-.67,.4-1.29,.85-1.79,1.47-.64,.79-1.03,1.66-1.22,2.67-.48,2.57-.87,5.15-.99,7.76-.05,.99-.09,1.98-.05,2.97,.06-.54,.1-1.08,.18-1.61,.31-2.34,1.39-4.24,3.23-5.71,.86-.69,1.81-1.25,2.73-1.86,.86-.57,1.73-1.15,2.39-1.97,.17-.21,.36-.4,.66-.25,.32,.17,.28,.45,.19,.73-.79,2.39-1.8,4.67-3.37,6.67-.91,1.16-1.99,2.09-3.33,2.71-.39,.18-.76,.41-1.13,.63-1.2,.69-1.64,1.71-1.52,3.09,.13,1.57,.24,3.14,.45,4.7,.37,2.72,.97,5.39,1.74,8.03,.02,.06,.06,.11,.14,.28,.01-.26,.03-.42,.03-.57,.01-3.89,1.46-7.23,3.88-10.2,.03-.03,.06-.07,.09-.09,.14-.12,.25-.38,.46-.27,.22,.11,.06,.35,.04,.53-.06,.54-.04,1.07,.12,1.6,.23,.76,.18,1.54-.05,2.3-.25,.85-.66,1.64-1.02,2.45-.53,1.16-1.05,2.32-1.6,3.47-.64,1.34-.81,2.76-.73,4.23,.01,.22,.07,.42,.15,.63,1.33,3.41,3,6.65,4.98,9.73,.04,.07,.07,.16,.22,.17-.1-.23-.19-.44-.29-.65-1.09-2.38-1.25-4.82-.48-7.32,.29-.93,.64-1.83,1-2.74,.44-1.13,.88-2.25,1.03-3.47,.02-.13,.05-.26,.12-.37,.17-.29,.5-.29,.66,.02,.08,.15,.11,.33,.15,.49,.34,1.65,.58,3.33,.6,5.01,.03,2.28-.22,4.53-1.36,6.58-.23,.41-.4,.86-.59,1.3-.48,1.1-.35,2.11,.38,3.09,1.54,2.09,3.17,4.1,4.98,5.96,.15,.15,.27,.34,.53,.43,.08-.26-.03-.47-.16-.64-.77-1.03-1.04-2.23-1.15-3.46-.2-2.39,.2-4.69,1.21-6.88,.09-.19,.14-.41,.39-.53,.2,.13,.19,.36,.2,.56,.03,.31,.07,.61,.25,.86,.62,.9,.64,1.9,.48,2.93-.24,1.53-.5,3.07-.77,4.6-.2,1.15,.07,2.23,.38,3.31,.1,.35,.39,.56,.65,.79,2.43,2.21,5.02,4.23,7.85,5.92,.32,.19,.63,.37,.95,.56,.04,.02,.08,.03,.17,.06-.15-.41-.45-.63-.77-.83-.98-.6-1.88-1.29-2.66-2.15-1.17-1.31-1.73-2.87-1.99-4.56-.17-1.09-.21-2.19-.27-3.29-.06-1.08-.17-2.15-.52-3.18,0-.02-.01-.04-.02-.06-.14-.48-.1-.74,.15-.87,.36-.19,.57,.08,.76,.3,1.88,2.11,3.55,4.35,4.42,7.09,.38,1.18,.59,2.38,.46,3.63-.08,.75-.03,1.51,.09,2.26,.04,.26,.14,.49,.28,.71,.34,.55,.79,1.02,1.2,1.53,.12,.16,.29,.25,.47,.34,1.93,.98,3.9,1.85,5.95,2.55,.1,.03,.19,.1,.34,.02-.08-.19-.25-.28-.42-.35-1.12-.47-1.92-1.31-2.6-2.27-.94-1.34-1.42-2.85-1.58-4.47,0-.04-.01-.09,0-.13,.01-.21-.09-.49,.15-.58,.22-.09,.3,.19,.43,.32,.17,.2,.38,.35,.61,.47,.72,.35,1.19,.92,1.47,1.65,.34,.89,.66,1.78,.97,2.68,.33,.95,.79,1.8,1.55,2.5,.51,.47,1.03,.83,1.71,.98,.61,.14,1.22,.29,1.82,.46,.29,.08,.58,.19,.85,.31,.14,.06,.38,.13,.29,.35-.08,.2-.3,.14-.46,.11-.49-.09-.97-.19-1.46-.28-2.82-.53-5.48-1.55-8.08-2.74-3.53-1.62-6.83-3.61-9.89-6-.62-.49-1.37-.73-2.1-.99-.27-.1-.56-.07-.83,0-.44,.12-.88,.22-1.3,.39-1.65,.65-3.33,.64-5.03,.28-1.47-.31-2.85-.84-4.19-1.52-.1-.05-.19-.1-.28-.16-.15-.11-.24-.25-.2-.44,.05-.19,.2-.27,.38-.3,.08-.01,.17-.02,.26-.02,1.09,.05,2.14-.22,3.19-.48,1.03-.25,2.06-.47,3.13-.47,1.25,0,2.38,.34,3.43,1,.14,.09,.25,.23,.52,.22-.2-.2-.35-.37-.52-.53-1.52-1.47-3.01-2.97-4.36-4.6-.57-.69-1.29-1.21-1.98-1.76-.17-.13-.32-.17-.53-.07-1.68,.75-3.29,.41-4.85-.39-.91-.47-1.69-1.13-2.45-1.8-1.1-.97-2.16-2-3.4-2.79-.07-.05-.14-.1-.2-.17-.13-.16-.09-.3,.11-.32,.21-.02,.43-.02,.64,0,3.57,.39,6.85,1.55,9.71,3.78,.06,.05,.12,.12,.23,.09,.01-.19-.13-.31-.23-.44-.98-1.43-1.9-2.89-2.74-4.4-.14-.26-.33-.44-.61-.54-.51-.17-1-.38-1.55-.45-.54-.06-1.04-.29-1.51-.56-1.6-.96-2.78-2.31-3.62-3.96-.08-.16-.22-.33-.12-.55,1.24,.32,2.41,.69,3.19,1.84,.43,.64,.98,1.2,1.49,1.79,.45,.53,.98,.98,1.63,1.26,.11,.05,.22,.15,.37,.05,.08-.21-.07-.36-.16-.53-1.52-3.02-2.77-6.14-3.72-9.38-.26-.89-.81-1.51-1.76-1.72-.36-.08-.71-.19-1.07-.24-1.5-.22-2.79-.91-3.94-1.85-1.38-1.13-2.51-2.49-3.5-3.97-.05-.07-.1-.15-.13-.22-.07-.17-.07-.34,.08-.47,.12-.11,.27-.13,.42-.07,.04,.02,.08,.03,.12,.06,1.22,.79,2.62,1.09,3.98,1.52,.74,.24,1.47,.51,2.14,.9,1.06,.61,1.86,1.46,2.44,2.53,.1,.18,.14,.41,.41,.59-.12-.62-.23-1.16-.34-1.71-.3-1.55-.55-3.1-.72-4.67-.13-1.14-.68-2.13-1.12-3.16-.06-.13-.16-.18-.31-.19-1.77-.08-3-1.06-4.03-2.39-.55-.71-.92-1.51-1.26-2.33-.45-1.1-.87-2.21-1.33-3.3-.23-.54-.52-1.04-.78-1.56-.05-.1-.11-.21-.04-.3,.1-.13,.23-.06,.35,0,.1,.05,.19,.11,.28,.16,3.54,2.31,6.17,5.36,7.66,9.35,.07,.18,.14,.36,.3,.53,0-.37,.03-.74,0-1.1-.17-1.9,.01-3.79,.13-5.69,.09-1.49,.27-2.96,.51-4.44,.09-.52-.08-.99-.44-1.37-.33-.34-.65-.7-1.03-.98-1.25-.94-2.07-2.19-2.65-3.61-.69-1.67-1.03-3.43-1.18-5.22,0-.11-.02-.22,0-.32,.06-.3,.34-.41,.59-.22,.1,.08,.18,.19,.24,.3,.48,.86,1.14,1.57,1.82,2.26,.41,.41,.82,.83,1.21,1.26,1.09,1.22,1.86,2.59,2.11,4.25,.2-.74,.4-1.49,.6-2.23,.45-1.63,.95-3.23,1.61-4.78,.26-.62,.23-1.27,.36-1.9,.09-.48,.1-.99,.14-1.48,.03-.28-.03-.49-.29-.66-1.3-.84-1.93-2.11-2.27-3.56-.26-1.11-.19-2.24-.08-3.35,.17-1.69,.51-3.37,.46-5.09,0-.09,0-.18,.02-.26,.07-.22,.2-.21,.33-.06,.08,.1,.14,.21,.21,.33,1.73,3.19,2.68,6.58,2.57,10.24-.03,.95-.18,1.89-.35,2.9,.23-.18,.28-.38,.36-.56,.92-2.03,2-3.97,3.17-5.86,.26-.42,.33-.82,.25-1.29-.12-.68-.19-1.36-.39-2.02-.21-.71-.15-1.46-.04-2.19,.25-1.56,.87-2.98,1.79-4.26,.09-.12,.19-.23,.3-.34,.04-.04,.11-.05,.21-.09,.14,1.15,.51,2.26-.06,3.4-.4,.79-.68,1.63-1.04,2.44-.44,1-.53,2.03-.39,3.09,.21,.04,.24-.12,.3-.22,1.59-2.42,3.39-4.68,5.27-6.88,.65-.76,.88-1.78,.58-2.8-.13-.45-.32-.9-.55-1.31-.89-1.67-1.01-3.46-.85-5.3,.13-1.4,.5-2.76,.94-4.09,.05-.14,.1-.28,.16-.42,.08-.2,.21-.33,.45-.29,.22,.04,.34,.2,.35,.41,.12,1.62,.82,3.08,1.31,4.59,.47,1.46,.73,2.93,.28,4.45-.28,.95-.73,1.8-1.29,2.6-.21,.3-.43,.6-.45,1.01,.19,.04,.26-.12,.35-.21,2.48-2.44,5.13-4.69,7.97-6.71,.63-.45,.95-1.1,1.35-1.71,.1-.14,.06-.28-.02-.42-.73-1.32-.57-2.67-.04-3.99,.34-.85,.86-1.6,1.38-2.34,.54-.76,1.07-1.52,1.48-2.36,.05-.1,.1-.19,.16-.28,.05-.07,.12-.13,.21-.08,.05,.03,.1,.09,.11,.14,.02,.15,.03,.3,.03,.45,.06,3.3-.8,6.32-2.71,9.02-.05,.07-.09,.14-.18,.28,.33-.03,.53-.19,.74-.3,2.23-1.24,4.5-2.39,6.79-3.5,.31-.15,.63-.28,.95-.41,.11-.04,.24-.12,.38,.04Zm-8.52,93.08c-.15-1.66-.14-3.33-.69-4.92-.57-1.63-1.95-3.87-2.58-4.16,.41,1.79,.74,3.57,1.26,5.31,.32,1.06,.75,2.07,1.31,3.02,.17,.29,.33,.6,.7,.76ZM17.22,57.7c-1.41,1.21-2.84,2.38-4.08,3.76-.72,.8-1.37,1.66-1.84,2.65-.1,.2-.23,.4-.2,.67,2.76-1.34,5.14-4.08,6.12-7.08Zm-5.85-23.65c-.29,1.45-.53,2.9-.46,4.37,.05,1.05,.31,2.05,.86,2.95,.14,.23,.26,.48,.61,.63,.51-2.79-.04-5.39-1-7.95Zm-1.03,60.84c.09,.14,.11,.2,.15,.24,.93,.83,1.83,1.7,2.87,2.41,.77,.53,1.61,.91,2.54,1.08,.48,.09,.97,.11,1.58-.02-2.02-2.06-4.45-3.03-7.13-3.72ZM2.24,61.55s-.09,.05-.13,.07c.12,.34,.24,.68,.37,1.02,.52,1.38,1.07,2.74,2.02,3.89,.48,.58,1.07,1,1.73,1.34,.11,.06,.24,.14,.36,.05,.13-.1,.04-.24,0-.36-.28-.8-.65-1.55-1.1-2.27-.89-1.42-2.02-2.62-3.25-3.74Zm16.67,32.25c1.44-2.75,2-6.89,1.32-9.64-.72,3.19-1.78,6.25-1.32,9.64Zm11.47-60.77c-2.38-.22-6.83,.07-8.03,1.24,.34,.04,.65,.09,.97,.11,1.09,.06,2.17,.26,3.28,.06,1.35-.24,2.59-.75,3.78-1.41Zm-6.3-7.11c.69-2.63-.08-5.15-.55-7.77-.92,1.89-.69,5.23,.55,7.77Zm1.09,81.27c-.03-.1-.11-.12-.19-.15-.29-.09-.57-.19-.87-.26-1.78-.44-3.56-.22-5.35-.08-.42,.03-.83,.07-1.31,.12,2.15,1.14,5.42,1.28,7.72,.37ZM2.36,75.16c1.56,2.21,3.69,3.5,6.34,3.99-.3-.51-.71-.9-1.17-1.26-1.55-1.21-3.35-1.94-5.1-2.78,0,0-.03,.02-.07,.04Zm2.8-26.25c.24,2.71,1.58,4.83,3.66,6.72-.47-2.75-2.2-4.65-3.66-6.72ZM36.17,12.92c-.65,.78-1.23,1.59-1.7,2.49-.45,.87-.61,1.79-.52,2.75,.01,.11-.03,.27,.2,.31,1.28-1.61,1.75-3.54,2.02-5.55Zm-19.82,29.94c2.11-.19,3.96-.91,5.35-2.58-1.9,.61-3.86,1.11-5.35,2.58Zm-3.23,36.8c.79-1.36,1.64-4.05,1.66-5.22-1.11,1.64-1.65,3.34-1.66,5.22Zm11.73,20.41c.24-1.29,.41-2.59,.19-3.91-.42,1.28-.56,2.58-.19,3.91Zm16.73,13.11c-.33-.98-.73-1.93-1.43-2.71,.15,1.08,.64,1.97,1.43,2.71ZM13.75,50.38c.88-.48,1.75-.99,2.39-1.8-.99,.34-1.77,.97-2.39,1.8Zm-3.99,38.38c.44,.74,1.02,1.34,1.83,1.68-.53-.65-1.09-1.26-1.83-1.68ZM17.92,30.53c-.52,.67-.76,1.6-.67,2.44,.29-.83,.61-1.6,.67-2.44Zm12.7-4.2c.81,.07,1.6,.16,2.4,0-.8-.2-1.6-.19-2.4,0Z"/>
  <path d="M73.6,62.07c.45-.41,.75-.89,1.19-1.25,1.31-1.1,2.82-1.34,4.44-1.04,2.19,.4,3.65,1.7,4.31,3.82,.73,2.35,.6,4.65-.7,6.8-1.05,1.72-2.61,2.72-4.58,3.09-1.8,.33-3.57,.05-5.32-.37-.48-.12-.95-.28-1.42-.43-.28-.09-.42-.28-.42-.58,0-.22,0-.43,0-.65,0-5.2,0-10.4,0-15.6,0-.22,0-.43,0-.65-.02-1.11-.36-1.46-1.47-1.52-.28-.02-.56,0-.84-.02-.12,0-.29,0-.31-.17-.02-.21,.18-.21,.32-.23,.15-.02,.3-.01,.45-.02,1.23-.04,2.46,.02,3.69-.09,.48-.05,.62,.1,.65,.57,.01,.17,0,.35,0,.52,0,2.37,0,4.75,0,7.12,0,.24,0,.47,0,.71Zm.02,5.37c0,1.1,0,2.2,0,3.3,0,.04,0,.09,0,.13,.06,1.22,.63,1.91,1.81,2.19,.11,.02,.21,.05,.32,.07,1.55,.21,2.98,.03,4.05-1.28,.36-.44,.63-.92,.83-1.45,.7-1.91,.72-3.89,.48-5.87-.11-.95-.41-1.85-.96-2.65-.9-1.31-2.2-1.73-3.68-1.39-1.61,.37-2.82,1.94-2.85,3.66-.02,1.1,0,2.2,0,3.3Z"/>
  <path d="M57.39,70.81c-.47,.65-1,1.24-1.7,1.65-1.74,1.02-3.54,1.03-5.33,.18-1.08-.51-1.7-1.44-1.92-2.62-.09-.49-.13-.98-.13-1.48,0-2.22,0-4.45,0-6.67,0-1.52-.28-1.82-1.76-1.97-.2-.02-.56,.07-.55-.16,.01-.3,.37-.18,.58-.18,1.1-.01,2.2,0,3.3,0,1,0,1.03,.02,1.03,1,0,2.89,0,5.78,0,8.68,0,.39,0,.78,.08,1.16,.35,1.56,1.4,2.15,2.83,2.09,1.63-.06,3.11-1.31,3.55-2.86,.08-.27,.11-.55,.11-.83,0-2.33,0-4.66,0-6.99,0-.06,0-.13,0-.19-.05-1.18-.35-1.52-1.52-1.67-.21-.03-.43-.04-.64-.07-.05,0-.12-.07-.14-.11-.02-.1,.05-.16,.15-.17,.17-.02,.34-.03,.52-.03,1.08,0,2.16,0,3.24,0,.89,0,.92,.02,.92,.9,0,3.32,0,6.65,0,9.97,0,.22,0,.43,0,.65,.04,1.02,.42,1.4,1.43,1.45,.28,.01,.56,0,.84,0,.11,0,.22,.01,.32,.05,.05,.02,.1,.09,.1,.14,0,.05-.04,.14-.09,.15-.12,.04-.25,.07-.37,.08-1.32,.04-2.63,.02-3.95,.11-.65,.05-.76-.09-.77-.73-.01-.49,0-.99,0-1.48-.04-.02-.09-.03-.13-.05Z"/>
  <path d="M28.53,77.99c.21,.58,.61,.89,1.08,1.12,1.14,.56,2.37,.35,3.29-.53,.91-.87,1.44-1.99,1.95-3.1,.29-.63,.53-1.27,.83-1.9,.21-.45,.19-.85,0-1.3-1.09-2.49-2.15-4.99-3.22-7.49-.44-1.03-.89-2.06-1.33-3.09-.07-.16-.15-.31-.21-.47-.36-.84-.99-1.28-1.9-1.32-.17,0-.48,.06-.47-.18,0-.24,.3-.16,.48-.17,2.03,0,4.06,0,6.09,0,.13,0,.26,0,.39,.03,.05,0,.12,.07,.13,.11,.03,.11-.06,.16-.14,.17-.26,.02-.52,.02-.77,.04-.89,.08-1.19,.5-.93,1.36,.14,.45,.33,.89,.51,1.33,.91,2.22,1.82,4.43,2.74,6.65,.06,.13,.07,.3,.22,.39,.19-.04,.18-.22,.24-.35,.98-2.32,1.97-4.65,2.95-6.98,.08-.2,.17-.4,.23-.6,.27-.86-.1-1.49-.99-1.68-.36-.07-.72-.13-1.09-.12-.15,0-.3,0-.45-.03-.05,0-.12-.07-.13-.12-.03-.11,.06-.15,.15-.17,.11-.02,.21-.02,.32-.02,1.71,0,3.41,0,5.12,0,.11,0,.21,.02,.32,.03,.07,0,.12,.05,.13,.12,.02,.12-.07,.15-.15,.17-.15,.02-.3,.02-.45,.03-.76,.05-1.36,.36-1.78,1.01-.37,.56-.65,1.17-.91,1.78-1.76,4.18-3.51,8.36-5.28,12.53-.5,1.17-1.07,2.31-1.89,3.31-.99,1.2-2.38,1.59-3.84,1.06-1.35-.49-2.12-1.92-1.73-3.21,.31-1.01,1.29-1.48,2.26-1.08,.75,.31,1.14,1.16,.87,1.93-.27,.77-1.09,1.18-1.88,.97-.21-.06-.37-.22-.7-.2Z"/>
  <path d="M91.6,66.04c0,1.51,0,3.02,0,4.53,0,.26,0,.52,0,.78,.03,1.08,.45,1.51,1.54,1.57,.3,.02,.6,.02,.9,.04,.1,0,.15,.09,.14,.18,0,.05-.07,.13-.11,.14-.14,.04-.3,.06-.44,.06-2.22,0-4.44,0-6.66,0-.2,0-.53,.06-.53-.21,0-.3,.33-.19,.52-.2,.37-.02,.73-.02,1.09-.1,.56-.13,.84-.49,.92-1.03,.04-.28,.04-.56,.04-.84,0-2.98,0-5.95,0-8.93,0-1.33-.27-1.63-1.66-1.73-.17-.01-.35,0-.52-.01-.12,0-.29,0-.31-.16-.02-.21,.18-.21,.32-.23,.13-.02,.26-.02,.39-.02,1.23-.05,2.46,.01,3.68-.1,.47-.04,.62,.11,.66,.59,.02,.19,.01,.39,.01,.58,0,1.7,0,3.41,0,5.11Z"/>
  <path d="M38.15,20.53c.3-.28,.65-.35,.98-.42,.6-.13,1.14-.38,1.64-.73,.44-.31,.93-.54,1.44-.74,1.48-.6,2.98-.64,4.5-.2,.75,.22,1.47,.5,2.18,.81,1.11,.47,2.22,.96,3.44,1.1,.24,.03,.48,.11,.51,.4,.03,.29-.19,.42-.42,.49-2.41,.74-4.86,1.22-7.39,.78-.68-.12-1.34-.32-1.96-.64-.57-.3-1.16-.57-1.74-.86-.55-.28-1.1-.33-1.69-.15-.31,.1-.62,.17-.94,.24-.16,.03-.33,.13-.54-.07Zm3.84-.57c2.68,1.28,5.33,1.84,8.15,.95-.05-.09-.14-.1-.22-.12-1.05-.25-2.09-.51-3.15-.74-1.14-.25-2.29-.4-3.47-.33-.43,.02-.84,.09-1.32,.24Z"/>
  <path d="M55.79,9.27c.08-.31,.31-.34,.49-.43,1.57-.77,1.48-.48,2.22-2.33,.97-2.43,2.74-4.04,4.94-5.27,.64-.36,1.31-.66,1.97-.98,.19-.09,.4-.16,.6-.23,.2-.07,.39-.05,.51,.15,.12,.19,.06,.37-.08,.53-.18,.22-.37,.42-.54,.64-.65,.84-1.1,1.8-1.61,2.73-.43,.8-.9,1.57-1.5,2.26-1.15,1.33-2.63,2.01-4.34,2.2-.63,.07-1.23,.19-1.8,.49-.26,.14-.53,.26-.88,.22Zm3.26-1.99c.23,.01,.35-.09,.48-.17,.85-.53,1.6-1.16,2.26-1.92,.86-1,1.64-2.06,2.43-3.11,.09-.12,.24-.23,.27-.43-3.1,1.51-4.09,2.92-5.43,5.63Z"/>
  <path d="M50.11,14.4c.44-.31,.89-.36,1.32-.4,.81-.08,1.62-.17,2.41-.41,.94-.29,1.92-.25,2.89-.1,2.33,.36,4.42,1.3,6.29,2.73,.23,.18,.49,.35,.61,.64-.04,.05-.07,.11-.09,.11-.76-.01-1.49,.13-2.23,.26-.74,.13-1.45-.17-2.13-.46-.93-.4-1.85-.83-2.78-1.24-.3-.13-.6-.25-.89-.4-1.53-.76-3.15-.82-4.81-.64-.17,.02-.34,.09-.6-.08Zm6.37-.06c1.28,.55,2.55,1.11,3.95,1.22-1.19-.82-2.49-1.29-3.95-1.22Z"/>
  <path d="M42.79,13.69c-.01-.14,.06-.19,.13-.23,.16-.11,.33-.21,.49-.31,1.56-.92,2.75-2.17,3.55-3.82,.49-1.01,1.08-1.96,1.64-2.93,.5-.86,1.12-1.58,2.13-1.86,.41-.12,.68-.44,.98-.72,.08-.07,.18-.13,.29-.06,.08,.05,.07,.15,.06,.24,0,.09-.03,.17-.05,.25-.74,2.91-2.19,5.37-4.6,7.21-.53,.41-1.11,.75-1.78,.88-.24,.05-.43,.2-.63,.32-.5,.29-1,.6-1.51,.87-.21,.11-.45,.24-.71,.16Zm5.01-3.65c1.25-.88,2.25-2.28,2.45-3.41-1.03,1-1.74,2.2-2.45,3.41Z"/>
  <path d="M66.86,11.54c.11-.36,.37-.49,.59-.65,.28-.21,.52-.45,.71-.74,1.09-1.58,2.6-2.32,4.52-2.29,1.16,.02,2.33,.11,3.48-.16,.18-.04,.35-.04,.45,.14,.12,.22-.03,.37-.18,.49-1.57,1.22-3.22,2.25-5.25,2.49-.63,.07-1.25-.01-1.87-.1-.7-.1-1.27,.08-1.81,.49-.17,.13-.32,.29-.65,.32Zm7.73-2.74c-1.33-.25-4.57,.6-5.15,1.3,1.82,.11,3.61-.07,5.15-1.3Z"/>
  <path d="M109.26,92.32c0,.38-.1,.73-.28,1.05-.37,.63-.76,1.25-1.14,1.88-.16,.28-.34,.34-.63,.16-1.15-.72-2.31-1.43-3.47-2.14-.26-.16-.36-.35-.17-.64,.37-.58,.73-1.17,1.1-1.75,.13-.2,.29-.37,.49-.51,.69-.5,1.46-.37,1.88,.37,.18,.32,.34,.39,.7,.35,.89-.12,1.52,.43,1.53,1.25Zm-.76,.25c.03-.26-.11-.49-.37-.65-.25-.16-.5-.13-.72,.06-.49,.44-.76,1.04-1.08,1.59-.07,.12-.01,.24,.09,.35,.62,.64,1.02,.6,1.49-.15,.07-.11,.14-.22,.21-.33,.17-.25,.31-.52,.38-.87Zm-2.01-.96c.01-.28-.1-.5-.36-.63-.27-.13-.51-.04-.71,.14-.25,.22-.39,.51-.57,.78-.5,.78-.49,.81,.32,1.25,.38,.21,.41,.21,.66-.17,.17-.25,.32-.51,.48-.77,.11-.19,.19-.39,.19-.61Z"/>
  <path d="M86.04,110.68c.45,.83,.9,1.66,1.35,2.49,.12,.21,.17,.39-.08,.55-.28,.19-.45,.17-.64-.13-.18-.29-.34-.6-.5-.9-.49-.89-.98-1.77-1.47-2.66-.08-.15-.21-.3-.07-.47,.15-.17,.35-.26,.58-.2,.15,.04,.29,.1,.43,.15,.92,.37,1.84,.75,2.75,1.12,.18,.07,.35,.17,.56,.17,.12-.19-.03-.33-.11-.46-.36-.68-.75-1.36-1.11-2.04-.17-.33-.12-.47,.19-.62,.21-.1,.38-.07,.5,.14,.17,.3,.33,.6,.5,.9,.48,.87,.96,1.73,1.43,2.61,.11,.2,.32,.4,.08,.64-.21,.21-.46,.2-.72,.09-1-.41-1.99-.82-2.99-1.22-.2-.08-.4-.15-.6-.23-.03,.03-.06,.05-.09,.08Z"/>
  <path d="M100.67,30.05c-.58,.52-1.13,1.01-1.67,1.5-.14,.13-.3,.25-.44,.38-.2,.17-.38,.16-.56-.04-.21-.23-.17-.41,.05-.6,.77-.69,1.54-1.39,2.31-2.08,.24-.22,.48-.43,.73-.64,.32-.27,.59-.2,.73,.19,.07,.19,.02,.38,0,.58-.18,1.06-.36,2.13-.53,3.19-.02,.12-.07,.25,.06,.39,.24-.03,.38-.24,.55-.39,.5-.44,.99-.89,1.49-1.34,.14-.13,.29-.27,.51-.15,.33,.17,.39,.45,.1,.71-.99,.9-1.99,1.79-2.99,2.68-.14,.12-.29,.3-.51,.18-.25-.14-.35-.36-.3-.66,.09-.53,.17-1.06,.26-1.6,.1-.57,.2-1.15,.29-1.72,.03-.17,.09-.34-.07-.58Z"/>
  <path d="M98.61,104.93c-.02,.49-.23,1.04-.65,1.51-.5,.57-1.13,1-1.68,1.51-.22,.2-.42,.18-.61-.05-.9-1.07-1.81-2.14-2.71-3.21-.15-.18-.17-.35,.02-.51,.65-.53,1.23-1.16,1.98-1.56,1.65-.89,3.68,.31,3.66,2.3Zm-2.57-1.79c-.53-.04-.97,.26-1.4,.61-.82,.66-.83,.66-.17,1.44,.07,.08,.13,.17,.2,.25,.38,.44,.76,.88,1.14,1.32,.21,.24,.43,.26,.67,.05,.37-.32,.77-.63,1.04-1.05,.34-.53,.39-1.09,.06-1.65-.33-.56-.77-.98-1.54-.97Z"/>
  <path d="M83.73,113.77c0,1.44-1.25,2.6-2.78,2.58-1.37-.02-2.58-1.23-2.52-2.61,.07-1.68,1.44-2.55,2.8-2.57,1.38-.03,2.5,1.17,2.49,2.6Zm-4.43-.04c0,1.06,.75,1.82,1.78,1.81,1.01,0,1.83-.82,1.82-1.8-.01-.98-.8-1.78-1.76-1.78-1.01,0-1.85,.8-1.84,1.77Z"/>
  <path d="M105.41,39.81c-1.4,0-2.64-1.31-2.64-2.76,0-1.38,1.19-2.51,2.62-2.49,1.41,.02,2.64,1.3,2.64,2.76,0,1.37-1.19,2.5-2.62,2.49Zm-.04-.82c1.01,.01,1.84-.78,1.85-1.76,.01-.98-.81-1.83-1.79-1.84-1.01-.01-1.86,.8-1.85,1.76,0,.99,.83,1.84,1.79,1.85Z"/>
  <path d="M113.6,62.65c0-.26,0-.52,0-.78,0-.24,.08-.43,.36-.43,.25,0,.31,.19,.33,.4,.04,.47,.08,.94,.11,1.42,.04,.54,.11,.6,.62,.56,.71-.05,.8-.14,.77-.88-.02-.43-.07-.86-.09-1.29,0-.17,0-.35,.05-.51,.04-.17,.2-.22,.36-.22,.14,0,.25,.06,.3,.2,.04,.1,.06,.21,.07,.31,.05,.82,.1,1.63,.13,2.45,.02,.57-.03,.63-.61,.67-1.24,.09-2.49,.17-3.74,.22-.54,.02-.63-.07-.68-.62-.08-.81-.02-1.64-.13-2.45-.03-.24,.06-.43,.35-.44,.28-.01,.39,.15,.4,.4,.05,.6,.08,1.2,.13,1.8,.04,.44,.08,.47,.52,.43,.72-.05,.76-.1,.76-.81,0-.15,0-.3,0-.45,0,0-.01,0-.02,0Z"/>
  <path d="M90.19,56.01c-1.03,0-1.74-.73-1.73-1.76,.01-1,.79-1.79,1.75-1.78,.98,.01,1.81,.86,1.79,1.84-.02,.98-.79,1.7-1.81,1.69Z"/>
  <path d="M112.5,86.46c-.02,.06-.05,.17-.1,.26-.36,.81-.72,1.62-1.1,2.41-.2,.42-.27,.44-.71,.24-1.16-.52-2.32-1.05-3.47-1.59-.55-.26-.56-.3-.32-.83,.33-.75,.67-1.49,1.02-2.24,.08-.17,.16-.37,.42-.32,.31,.06,.42,.25,.29,.57-.23,.54-.48,1.06-.72,1.59-.23,.51-.22,.53,.3,.77,.06,.03,.12,.06,.18,.08,.47,.18,.54,.16,.75-.29,.2-.43,.4-.86,.6-1.29,.08-.16,.16-.31,.39-.27,.26,.04,.39,.24,.28,.52-.18,.46-.4,.91-.6,1.36-.21,.48-.2,.5,.27,.73,.78,.38,.79,.38,1.14-.39,.23-.49,.45-.98,.68-1.47,.08-.17,.21-.28,.42-.2,.15,.05,.28,.12,.29,.35Z"/>
  <path d="M101.94,99.36c-.01,.14-.1,.24-.18,.33-.33,.37-.66,.74-.99,1.11-.29,.33-.29,.36,.04,.68,.68,.65,.71,.65,1.35-.06,.33-.37,.66-.74,1-1.1,.17-.19,.34-.25,.55-.04,.2,.2,.16,.37,0,.56-.63,.68-1.25,1.37-1.89,2.04-.29,.3-.36,.3-.7,0-.96-.86-1.92-1.73-2.87-2.61-.42-.39-.42-.41-.04-.82,.56-.63,1.13-1.25,1.69-1.87,.13-.15,.26-.3,.49-.17,.24,.13,.3,.35,.11,.59-.24,.31-.51,.58-.77,.87-.1,.11-.21,.22-.31,.33-.48,.53-.48,.62,.06,1.08,.42,.36,.43,.36,.83-.06,.34-.36,.68-.72,1.02-1.08,.11-.12,.25-.17,.41-.07,.11,.07,.21,.16,.21,.3Z"/>
  <path d="M106.23,42.88c-.03-1.3,1.6-2.06,2.52-1.46,.35,.23,.64,.51,.83,.88,.15,.29,.3,.57,.44,.86,.11,.24,.28,.31,.52,.19,.23-.11,.47-.22,.7-.33,.23-.1,.37,0,.46,.21,.09,.19,.12,.38-.09,.51-.11,.07-.22,.13-.34,.19-1.08,.53-2.17,1.06-3.25,1.59-.62,.3-.64,.29-.94-.29-.23-.46-.44-.93-.65-1.4-.13-.3-.21-.61-.21-.94Zm.82,.34c.04,.36,.29,.81,.54,1.26,.07,.12,.19,.2,.33,.14,.51-.25,1.09-.39,1.49-.84-.08-.53-.37-.95-.67-1.37-.02-.03-.06-.07-.09-.09-.3-.25-.63-.35-1.01-.17-.39,.18-.61,.46-.59,1.08Z"/>
  <path d="M71.51,118.96c-.28,.02-.43-.17-.53-.39-.26-.61-.72-.73-1.32-.59-.36,.08-.72,.11-1.09,.15-.34,.03-.56,.19-.63,.54-.03,.15-.1,.29-.13,.43-.09,.34-.35,.4-.65,.4-.17,0-.23-.1-.21-.25,0-.08,.04-.17,.06-.25,.43-1.38,.86-2.76,1.29-4.14,.06-.18,.1-.38,.28-.5,.29-.19,.67-.11,.89,.23,.36,.56,.71,1.14,1.06,1.71,.44,.72,.89,1.43,1.31,2.15,.21,.35,.09,.52-.33,.51Zm-1.44-1.78c-.41-.9-.74-1.4-1.13-1.72-.24,.49-.34,1.02-.48,1.52-.06,.23,.06,.37,.31,.38,.43,.02,.84-.07,1.31-.19Z"/>
  <path d="M113.88,50.63c-1.37-.12-2.75-.24-4.12-.37-.17-.02-.35-.04-.51-.1-.37-.13-.51-.59-.25-.89,.24-.28,.5-.53,.78-.78,.84-.74,1.63-1.54,2.44-2.32,.09-.09,.19-.18,.29-.26,.19-.15,.31-.07,.4,.13,.13,.29,.1,.54-.15,.76-.72,.62-.68,.52-.31,1.61,.05,.14,.12,.28,.15,.43,.14,.68,.51,1.07,1.25,1.01,.04,0,.09,0,.13,.02,.26,.07,.46,.36,.4,.58-.04,.16-.18,.21-.49,.18Zm-3.93-1.23c.37,.21,.67,.22,.96,.19,.38-.04,.91,.31,1.1-.07,.15-.3-.19-.76-.33-1.14-.01-.04-.03-.08-.05-.12-.08-.16-.2-.23-.35-.09-.43,.39-.85,.78-1.34,1.23Z"/>
  <path d="M96.39,24.05c-.01,.05-.02,.12-.05,.18-.31,.62-.08,1.05,.47,1.4,.31,.2,.58,.45,.84,.71,.26,.26,.51,.27,.81,.09,.15-.09,.31-.15,.47-.21,.2-.09,.38-.02,.54,.11,.26,.21,.26,.38-.05,.53-.62,.3-1.25,.59-1.87,.88-.72,.34-1.45,.67-2.17,1.01-.26,.12-.51,.21-.78-.02-.29-.25-.24-.52-.15-.82,.38-1.3,.76-2.61,1.14-3.91,.02-.06,.03-.13,.06-.18,.08-.16,.06-.42,.34-.4,.25,.02,.45,.35,.42,.65Zm-1.12,3.9c.72-.37,1.36-.57,1.94-.96-.31-.44-.69-.66-1.01-.95-.21-.19-.34-.13-.42,.12-.17,.53-.37,1.05-.51,1.78Z"/>
  <path d="M114.26,79.52c.19,.04,.47-.12,.52,.22,.04,.25-.15,.5-.41,.58-.08,.02-.17,.04-.26,.03-.59-.03-.92,.24-1.02,.83-.06,.36-.19,.71-.33,1.05-.16,.39-.14,.7,.25,.95,.14,.09,.26,.23,.37,.36,.15,.16,.13,.35,.05,.54-.08,.19-.2,.28-.4,.15-.07-.05-.15-.09-.21-.15-1.09-.98-2.18-1.96-3.27-2.94-.17-.15-.29-.32-.23-.56,.07-.27,.2-.47,.51-.51,1.48-.18,2.95-.36,4.43-.54Zm-1.76,1.03c-.75,.06-1.41,.08-2.17,.27,.53,.46,.99,.87,1.46,1.27,.13,.11,.25,.03,.3-.12,.15-.44,.34-.88,.41-1.43Z"/>
  <path d="M115.86,74.8c.02,1.38-.89,2.48-2.49,2.2-.78-.14-1.57-.27-2.36-.41-.19-.03-.39-.06-.46-.29-.09-.32,.13-.59,.49-.54,.66,.09,1.32,.22,1.97,.34,.34,.06,.68,.1,1.03,.07,.54-.05,.83-.31,.99-.87,.15-.52,.09-.98-.36-1.34-.24-.19-.52-.29-.83-.35-.68-.12-1.36-.25-2.03-.37-.15-.03-.3-.05-.44-.1-.23-.08-.25-.28-.2-.48,.04-.21,.18-.29,.38-.26,.55,.09,1.11,.18,1.66,.27,.47,.08,.94,.14,1.39,.31,.86,.33,1.26,.92,1.26,1.83Z"/>
  <path d="M88.2,23.75c-.9-.04-1.6-.47-2.14-1.16-.09-.12-.18-.25-.13-.42,.05-.16,.17-.25,.32-.3,.15-.04,.25,.05,.32,.16,.27,.38,.61,.66,1.04,.84,.14,.06,.28,.11,.43,.13,.23,.03,.42-.08,.56-.27,.15-.2,.12-.4,0-.6-.13-.23-.33-.4-.51-.58-.27-.27-.55-.54-.77-.87-.31-.46-.35-.92-.06-1.4,.3-.49,.78-.7,1.33-.62,.94,.14,1.69,.63,2.19,1.45,.13,.21,.22,.43-.04,.62-.29,.21-.43,.01-.56-.2-.21-.33-.47-.61-.81-.82-.11-.07-.22-.14-.34-.18-.43-.17-.84-.11-1.01,.14-.17,.26-.1,.51,.27,.91,.35,.38,.76,.71,1.04,1.15,.28,.44,.33,.89,.07,1.35-.26,.45-.66,.67-1.18,.66Z"/>
  <path d="M63.3,114.57c.38,.06,.76,.07,1.1,.22,.23,.11,.44,.22,.31,.53-.11,.27-.31,.25-.54,.17-.39-.15-.8-.18-1.21-.16-.2,.01-.38,.06-.55,.17-.38,.27-.39,.69,0,.96,.2,.14,.43,.19,.66,.25,.4,.1,.8,.17,1.18,.34,.43,.2,.75,.5,.8,1.01,.06,.55-.17,.96-.61,1.27-.71,.5-2.27,.44-2.96-.08-.21-.16-.25-.33-.12-.56,.14-.24,.31-.16,.5-.06,.47,.26,.97,.33,1.5,.29,.2-.02,.38-.05,.55-.16,.39-.26,.4-.68,.01-.95-.22-.15-.48-.19-.73-.26-.4-.1-.8-.17-1.17-.36-.46-.23-.75-.59-.75-1.12,0-.54,.25-.95,.72-1.21,.41-.23,.86-.27,1.29-.3Z"/>
  <path d="M115.45,54.81c0,.21-.07,.5-.23,.77-.13,.22-.31,.28-.54,.15-.22-.12-.21-.27-.15-.48,.33-1.11-.03-1.51-1.16-1.29-.63,.12-1.26,.29-1.89,.43-.32,.07-.43,.23-.34,.56,.08,.29,.13,.59,.19,.88,.04,.22-.02,.38-.27,.43-.23,.05-.38-.03-.44-.26-.14-.61-.28-1.22-.41-1.82-.05-.24,.08-.37,.3-.42,1.11-.25,2.22-.54,3.34-.72,.91-.14,1.62,.65,1.6,1.77Z"/>
  <path d="M115.49,69.33c-.83-.18-1.78-.08-2.73-.19-.46-.05-.51,0-.54,.48-.02,.26-.02,.52-.06,.77-.03,.22-.16,.35-.4,.33-.24-.02-.34-.16-.34-.39,0-.15-.01-.3,0-.45,.09-.86,.11-1.72,.14-2.58,.02-.53,.13-.69,.4-.7,.3,0,.38,.15,.38,.74,0,.11,0,.22,0,.32,.01,.49,.04,.54,.55,.61,.34,.05,.69,.09,1.03,.08,.69,0,1.38,.09,2.06,.14,.4,.03,.52,.15,.5,.43-.02,.32-.23,.38-.49,.38-.13,0-.26,0-.5,0Z"/>
  <path d="M74.63,118.34c-.3,.02-.37-.17-.43-.4-.21-.84-.42-1.67-.62-2.51-.11-.46-.23-.92-.32-1.38-.08-.39-.01-.51,.3-.58,.3-.07,.41,0,.52,.4,.25,.98,.49,1.97,.73,2.95,.16,.65,.18,.65,.84,.5,.5-.12,1.01-.24,1.51-.35,.22-.05,.39,.01,.44,.26,.05,.23-.05,.39-.27,.44-.9,.23-1.8,.45-2.69,.67Z"/>
  <path d="M93.91,21.99c-.02,.16-.1,.28-.19,.41-.74,1.06-1.49,2.11-2.23,3.17-.14,.19-.27,.41-.57,.24-.3-.16-.37-.33-.18-.62,.35-.54,.73-1.07,1.1-1.59,.43-.62,.87-1.23,1.31-1.84,.11-.15,.25-.25,.44-.14,.15,.09,.3,.18,.32,.37Z"/>
  <path d="M65.69,66.74c-.28-.02-.56-.02-.84-.05-.13-.01-.25-.09-.26-.24,0-.2,.13-.26,.29-.26,.54,0,1.08,0,1.61,0,.15,0,.31,.05,.32,.24,0,.2-.14,.26-.3,.27-.28,.02-.56,0-.84,0,0,.01,0,.02,0,.04Z"/>
  <path d="M110.27,61.84c.44,.38,.77,.73,.99,1.17,.07,.13,.1,.32-.03,.42-.16,.13-.26-.06-.37-.13-.46-.33-.78-.72-.59-1.45Z"/>
</svg>